<svg width="40" height="15" viewBox="0 0 40 15" fill="none" xmlns="http://www.w3.org/2000/svg">
<path d="M15.4464 6.39249C15.0268 6.02684 14.5352 5.7482 14.0015 5.57354C13.482 5.40263 12.9375 5.31507 12.3891 5.3143C11.64 5.29253 10.8983 5.4643 10.2393 5.81219L10.1618 5.85854C10.341 5.42927 10.5781 5.02513 10.8667 4.65674C12.2358 2.93987 14.1477 2.78707 15.0605 2.76818L15.7848 0.295893C15.0077 0.232369 11.212 -0.133324 8.63228 3.12357C7.49041 4.56231 7.0305 6.3736 6.87014 7.77113L6.85957 7.86728C6.78063 8.51349 6.77 9.16588 6.82785 9.81421C6.8661 10.3592 6.96959 10.8979 7.13623 11.4195C7.33743 12.0697 7.68407 12.6684 8.15121 13.1724C8.6004 13.6407 9.16071 13.9944 9.78295 14.2025C10.4501 14.4167 11.1493 14.5206 11.8517 14.5098C12.4694 14.509 13.0826 14.4087 13.6667 14.2128C14.2524 14.0202 14.7958 13.722 15.2685 13.3338C15.7529 12.9277 16.1428 12.4254 16.4121 11.8607C16.7115 11.2222 16.8602 10.5264 16.8473 9.82451C16.8622 9.13683 16.7333 8.45339 16.4685 7.81577C16.2377 7.2748 15.8889 6.78917 15.4464 6.39249ZM14.1301 10.1147C14.1172 10.6377 13.8917 11.1344 13.5031 11.4956C13.1146 11.8568 12.5947 12.053 12.0579 12.041H11.8323C11.5664 12.0469 11.3019 12.0017 11.0539 11.908C10.8059 11.8143 10.5793 11.674 10.3871 11.4949C10.1948 11.3159 10.0406 11.1017 9.93332 10.8645C9.82603 10.6274 9.76775 10.372 9.7618 10.1129V9.70948C9.77428 9.18655 9.9994 8.68985 10.3877 8.32861C10.776 7.96738 11.2956 7.77117 11.8323 7.78315H12.0596C12.5963 7.77117 13.116 7.96738 13.5042 8.32861C13.8925 8.68985 14.1177 9.18655 14.1301 9.70948V10.1147ZM0.0454102 1.82219L1.01282 3.95797L2.50358 3.53734L2.50006 14.5081L5.41462 14.5098L5.41815 0.251254L0.0454102 1.82219ZM27.7584 8.89053C27.5795 8.46635 27.3294 8.07412 27.0184 7.72993C26.7303 7.41213 26.3954 7.13786 26.0245 6.91613L25.9012 6.84231C26.1963 6.62462 26.4647 6.37461 26.7012 6.09719C27.2095 5.47475 27.4737 4.6963 27.4466 3.90131C27.4525 3.36516 27.3268 2.83539 27.08 2.35613C26.8458 1.91017 26.5165 1.51801 26.1144 1.20583C25.6987 0.888777 25.2277 0.64741 24.7241 0.493332C23.6145 0.163681 22.4292 0.163681 21.3196 0.493332C20.8171 0.64797 20.3469 0.888664 19.9311 1.20412C19.5279 1.51599 19.1985 1.90893 18.9654 2.35613C18.7178 2.83509 18.5921 3.36507 18.5989 3.90131C18.5717 4.69283 18.834 5.46801 19.339 6.0886C19.574 6.36814 19.8406 6.62097 20.1337 6.84231C20.0855 6.86978 20.038 6.89897 19.991 6.92987C19.6287 7.15749 19.3003 7.43247 19.0148 7.7471C18.7072 8.08775 18.4579 8.47441 18.2764 8.89225C18.0739 9.38308 17.9744 9.9085 17.9839 10.4374C17.9656 11.1003 18.1227 11.7566 18.4403 12.3432C18.7265 12.8559 19.135 13.294 19.6315 13.6205C20.119 13.942 20.6623 14.1747 21.235 14.3073C22.4006 14.5774 23.6149 14.5774 24.7804 14.3073C25.3572 14.1751 25.9046 13.9424 26.3963 13.6205C26.8896 13.2928 27.2965 12.8564 27.584 12.3466C27.902 11.7595 28.0603 11.1028 28.0439 10.4391C28.0534 9.90687 27.9539 9.37809 27.7514 8.88366M21.5557 3.30384C22.0121 2.70122 22.8174 2.67204 23.0113 2.67375C23.2051 2.67547 24.0157 2.70122 24.4721 3.30556C24.6423 3.52207 24.7319 3.78856 24.7262 4.06125C24.7204 4.33394 24.6196 4.59661 24.4404 4.8061C24.1865 5.07953 23.8735 5.29472 23.524 5.43619C23.3608 5.5174 23.1896 5.5824 23.013 5.6302C22.8387 5.58083 22.6694 5.51589 22.5073 5.43619C22.1591 5.29512 21.8478 5.07982 21.5963 4.8061C21.4163 4.59668 21.3149 4.33377 21.3089 4.0607C21.3028 3.78763 21.3923 3.52068 21.5628 3.30384M24.8597 11.2392C24.2677 12.0375 23.221 12.0753 22.969 12.0736C22.717 12.0719 21.6632 12.0358 21.0676 11.2392C20.8453 10.9519 20.7288 10.6 20.7368 10.2403C20.7448 9.88054 20.8768 9.5339 21.1117 9.25622C21.4397 8.89525 21.8468 8.61069 22.3029 8.42354C22.5145 8.31665 22.7364 8.23039 22.9655 8.16601H22.9743C23.2017 8.23171 23.4223 8.31792 23.6333 8.42354C24.0876 8.61018 24.4925 8.8949 24.8175 9.25622C25.0506 9.53475 25.1814 9.88127 25.1891 10.2406C25.1968 10.6 25.0808 10.9515 24.8597 11.2392ZM38.8458 8.89053C38.6675 8.46644 38.4179 8.07421 38.1074 7.72993C37.819 7.41253 37.4841 7.13832 37.1136 6.91613C37.0731 6.89038 37.0308 6.86634 36.9885 6.84231C37.2844 6.62553 37.5529 6.37542 37.7885 6.09719C38.2983 5.47555 38.5628 4.69654 38.5339 3.90131C38.5408 3.36525 38.4157 2.83538 38.1691 2.35613C37.9347 1.90929 37.6048 1.5165 37.2017 1.20412C36.7875 0.889374 36.3183 0.650306 35.8167 0.498483C34.7077 0.168868 33.523 0.168868 32.414 0.498483C31.9108 0.652728 31.4399 0.893448 31.0237 1.20927C30.6215 1.5217 30.2928 1.91454 30.0598 2.36128C29.8108 2.83981 29.6844 3.36999 29.6915 3.90647C29.6649 4.69548 29.9251 5.46832 30.4263 6.0886C30.6657 6.36891 30.9371 6.62178 31.2351 6.84231C31.187 6.86978 31.1394 6.89897 31.0924 6.92987C30.7305 7.15794 30.4021 7.43286 30.1162 7.7471C29.8092 8.08782 29.5605 8.47449 29.3796 8.89225C29.1765 9.38296 29.0764 9.90838 29.0853 10.4374C29.0679 11.1002 29.225 11.7563 29.5417 12.3432C29.829 12.8551 30.2373 13.293 30.7329 13.6205C31.2206 13.9417 31.7638 14.1743 32.3365 14.3073C33.502 14.5774 34.7163 14.5774 35.8819 14.3073C36.4592 14.1754 37.0073 13.9428 37.4995 13.6205C37.9928 13.2928 38.3997 12.8564 38.6872 12.3466C39.0048 11.7594 39.1625 11.1027 39.1453 10.4391C39.1548 9.90687 39.0554 9.37809 38.8528 8.88366M32.6448 3.31243C33.1012 2.70809 33.9048 2.6789 34.0986 2.68062C34.2924 2.68234 35.103 2.70809 35.5612 3.31243C35.7312 3.52913 35.8205 3.79572 35.8144 4.06842C35.8083 4.34111 35.7072 4.60368 35.5277 4.81297C35.2742 5.08679 34.9611 5.30205 34.6114 5.44306C34.4486 5.52401 34.2781 5.589 34.1021 5.63707C33.9271 5.58799 33.7572 5.52304 33.5946 5.44306C33.2464 5.30199 32.9351 5.08668 32.6836 4.81297C32.5043 4.60348 32.4035 4.34081 32.3978 4.06812C32.392 3.79542 32.4816 3.52893 32.6519 3.31243M36.0616 11.2392C35.4695 12.0375 34.4228 12.0753 34.1708 12.0736C33.9189 12.0719 32.8669 12.0358 32.2713 11.2392C32.0487 10.9521 31.9319 10.6003 31.9395 10.2406C31.9472 9.88084 32.0789 9.5341 32.3136 9.25622C32.6416 8.89525 33.0487 8.61069 33.5048 8.42354C33.7169 8.31638 33.9394 8.23011 34.1691 8.16601C34.397 8.2318 34.6182 8.31801 34.8299 8.42354C35.2842 8.61018 35.6891 8.8949 36.014 9.25622C36.2482 9.53404 36.3802 9.88029 36.3888 10.2397C36.3974 10.5991 36.2822 10.951 36.0616 11.2392Z" fill="#FF4000"/>
</svg>
