<svg width="110" height="60" viewBox="0 0 110 60" fill="none" xmlns="http://www.w3.org/2000/svg">
<g clip-path="url(#clip0_1797_96041)">
<path d="M42.647 28.4754C41.6212 27.5612 40.4194 26.8646 39.1149 26.428C37.845 26.0007 36.5139 25.7818 35.1736 25.7799C33.3423 25.7255 31.5293 26.1549 29.9185 27.0246L29.729 27.1405C30.1671 26.0673 30.7465 25.057 31.4519 24.136C34.7988 19.8438 39.4724 19.4618 41.7036 19.4146L43.474 13.2339C41.5744 13.0751 32.2962 12.1608 25.9901 20.3031C23.1989 23.8999 22.0747 28.4281 21.6827 31.922L21.6568 32.1623C21.4639 33.7779 21.4379 35.4088 21.5793 37.0297C21.6728 38.3921 21.9258 39.7389 22.3331 41.0428C22.8249 42.6684 23.6723 44.1651 24.8142 45.4251C25.9122 46.5959 27.2818 47.4802 28.8029 48.0004C30.4337 48.5359 32.1429 48.7956 33.8598 48.7687C35.3697 48.7667 36.8688 48.5158 38.2965 48.0262C39.7282 47.5446 41.0564 46.7991 42.2119 45.8286C43.3962 44.8133 44.3492 43.5578 45.0074 42.1459C45.7394 40.5496 46.1029 38.8101 46.0714 37.0554C46.1076 35.3362 45.7925 33.6276 45.1453 32.0336C44.581 30.6812 43.7286 29.4671 42.647 28.4754ZM39.4293 37.7808C39.3977 39.0885 38.8464 40.3302 37.8966 41.2332C36.9468 42.1362 35.6762 42.6266 34.3638 42.5966H33.8124C33.1624 42.6114 32.5159 42.4985 31.9097 42.2642C31.3035 42.03 30.7496 41.679 30.2796 41.2314C29.8096 40.7838 29.4327 40.2483 29.1704 39.6555C28.9082 39.0627 28.7657 38.4242 28.7512 37.7765V36.7678C28.7817 35.4605 29.332 34.2188 30.2811 33.3157C31.2302 32.4126 32.5004 31.9221 33.8124 31.952H34.3681C35.6801 31.9221 36.9503 32.4126 37.8994 33.3157C38.8485 34.2188 39.3988 35.4605 39.4293 36.7678V37.7808ZM5 17.0496L7.36478 22.3891L11.0089 21.3375L11.0003 48.7645L18.1247 48.7687L18.1334 13.1223L5 17.0496ZM72.743 34.7205C72.3056 33.66 71.6942 32.6795 70.9339 31.819C70.2298 31.0245 69.4111 30.3388 68.5045 29.7845L68.203 29.5999C68.9243 29.0557 69.5805 28.4307 70.1585 27.7371C71.4011 26.181 72.047 24.2349 71.9806 22.2474C71.995 20.907 71.6879 19.5826 71.0846 18.3845C70.512 17.2696 69.7072 16.2892 68.7242 15.5087C67.7081 14.7161 66.5568 14.1127 65.3256 13.7275C62.6133 12.9033 59.716 12.9033 57.0036 13.7275C55.7752 14.1141 54.6258 14.7158 53.6094 15.5044C52.6238 16.2841 51.8187 17.2665 51.2489 18.3845C50.6436 19.5819 50.3363 20.9068 50.353 22.2474C50.2865 24.2262 50.9277 26.1642 52.1621 27.7156C52.7365 28.4145 53.3882 29.0466 54.1047 29.5999C53.987 29.6686 53.8707 29.7416 53.7558 29.8188C52.8704 30.3879 52.0674 31.0753 51.3695 31.8619C50.6177 32.7135 50.0083 33.6802 49.5647 34.7248C49.0696 35.9518 48.8265 37.2654 48.8497 38.5877C48.8048 40.2449 49.189 41.8857 49.9653 43.352C50.6648 44.6338 51.6635 45.7291 52.8771 46.5454C54.0688 47.3491 55.3969 47.9308 56.7969 48.2623C59.646 48.9376 62.6143 48.9376 65.4634 48.2623C66.8732 47.9319 68.2113 47.3502 69.4133 46.5454C70.6191 45.7262 71.6138 44.635 72.3166 43.3606C73.0938 41.8928 73.4809 40.2511 73.4408 38.592C73.4639 37.2613 73.2209 35.9394 72.7258 34.7033M57.5808 20.7538C58.6965 19.2472 60.665 19.1742 61.1388 19.1785C61.6126 19.1828 63.594 19.2472 64.7096 20.758C65.1258 21.2993 65.3449 21.9655 65.3308 22.6473C65.3167 23.329 65.0703 23.9857 64.6321 24.5094C64.0115 25.193 63.2465 25.7309 62.3922 26.0846C61.9932 26.2877 61.5747 26.4501 61.1431 26.5696C60.7169 26.4462 60.3031 26.2839 59.9068 26.0846C59.0557 25.732 58.2948 25.1937 57.6799 24.5094C57.24 23.9858 56.9922 23.3286 56.9773 22.6459C56.9624 21.9632 57.1814 21.2959 57.5981 20.7538M65.6573 40.5922C64.21 42.588 61.6514 42.6824 61.0354 42.6782C60.4194 42.6739 57.8436 42.5837 56.3877 40.5922C55.8442 39.8739 55.5593 38.9942 55.5789 38.0948C55.5984 37.1955 55.9212 36.3289 56.4954 35.6347C57.2973 34.7323 58.2924 34.0209 59.4072 33.553C59.9245 33.2858 60.467 33.0701 61.0268 32.9092H61.0483C61.6042 33.0734 62.1436 33.289 62.6593 33.553C63.7699 34.0196 64.7596 34.7314 65.5539 35.6347C66.1238 36.331 66.4436 37.1973 66.4624 38.0957C66.4811 38.9941 66.1977 39.8728 65.6573 40.5922ZM99.8454 34.7205C99.4095 33.6602 98.7995 32.6797 98.0406 31.819C97.3355 31.0255 96.5169 30.3399 95.6112 29.7845C95.5121 29.7201 95.4087 29.66 95.3053 29.5999C96.0286 29.058 96.685 28.4327 97.2609 27.7371C98.5072 26.183 99.1535 24.2355 99.0829 22.2474C99.0999 20.9073 98.7942 19.5826 98.1913 18.3845C97.6182 17.2674 96.8119 16.2854 95.8265 15.5044C94.8141 14.7176 93.667 14.1199 92.4409 13.7403C89.73 12.9163 86.8341 12.9163 84.1232 13.7403C82.8931 14.126 81.7421 14.7278 80.7247 15.5173C79.7416 16.2984 78.9382 17.2805 78.3685 18.3974C77.7598 19.5937 77.4509 20.9191 77.4683 22.2603C77.4031 24.2329 78.0393 26.1649 79.2645 27.7156C79.8496 28.4164 80.5129 29.0486 81.2416 29.5999C81.1238 29.6686 81.0075 29.7416 80.8927 29.8188C80.008 30.389 79.2052 31.0763 78.5063 31.8619C77.7558 32.7137 77.1479 33.6804 76.7058 34.7248C76.2093 35.9515 75.9647 37.2651 75.9865 38.5877C75.9438 40.2447 76.3279 41.885 77.1021 43.352C77.8042 44.632 78.8024 45.7267 80.0139 46.5454C81.206 47.3484 82.534 47.93 83.9337 48.2623C86.7828 48.9376 89.7512 48.9376 92.6003 48.2623C94.0116 47.9327 95.3513 47.351 96.5545 46.5454C97.7602 45.7262 98.7549 44.635 99.4577 43.3606C100.234 41.8926 100.62 40.2508 100.578 38.592C100.601 37.2613 100.358 35.9394 99.8626 34.7033M84.6875 20.7752C85.8031 19.2644 87.7673 19.1914 88.2411 19.1957C88.715 19.2 90.6964 19.2644 91.8163 20.7752C92.2319 21.317 92.4502 21.9835 92.4353 22.6652C92.4204 23.3469 92.1733 24.0033 91.7345 24.5266C91.1147 25.2111 90.3495 25.7493 89.4946 26.1018C89.0968 26.3042 88.6798 26.4666 88.2498 26.5868C87.8219 26.4641 87.4066 26.3017 87.0092 26.1018C86.1581 25.7491 85.3971 25.2109 84.7823 24.5266C84.3441 24.0028 84.0977 23.3462 84.0836 22.6644C84.0695 21.9827 84.2885 21.3165 84.7047 20.7752M93.0396 40.5922C91.5923 42.588 89.0337 42.6824 88.4177 42.6782C87.8018 42.6739 85.2302 42.5837 83.7743 40.5922C83.2303 39.8743 82.9446 38.9949 82.9634 38.0956C82.9821 37.1962 83.3042 36.3294 83.8777 35.6347C84.6796 34.7323 85.6747 34.0209 86.7895 33.553C87.308 33.2851 87.852 33.0694 88.4134 32.9092C88.9707 33.0736 89.5114 33.2892 90.0287 33.553C91.1393 34.0196 92.1291 34.7314 92.9233 35.6347C93.4958 36.3292 93.8184 37.1949 93.8395 38.0934C93.8605 38.992 93.579 39.8717 93.0396 40.5922Z" fill="#EB4C27"/>
</g>
<defs>
<clipPath id="clip0_1797_96041">
<rect width="95.625" height="35.625" fill="white" transform="translate(5 13.125)"/>
</clipPath>
</defs>
</svg>
