<svg width="33" height="32" viewBox="0 0 33 32" fill="none" xmlns="http://www.w3.org/2000/svg">
<path d="M20.1499 6.81004L22.2832 7.92956C24.5783 9.13398 25.7259 9.73619 26.3631 10.8183C27.0003 11.9005 27.0003 13.2471 27.0003 15.9402V16.065C27.0003 18.7582 27.0003 20.1047 26.3631 21.1869C25.7259 22.269 24.5783 22.8712 22.2832 24.0756L20.1499 25.1952C18.2772 26.1779 17.3409 26.6693 16.3337 26.6693C15.3264 26.6693 14.3901 26.1779 12.5174 25.1952L10.3841 24.0757C8.08899 22.8712 6.94144 22.269 6.30422 21.1869C5.66699 20.1047 5.66699 18.7582 5.66699 16.065V15.9402C5.66699 13.2471 5.66699 11.9005 6.30422 10.8183C6.94144 9.73619 8.08899 9.13398 10.3841 7.92956L12.5174 6.81003C14.3901 5.8273 15.3264 5.33594 16.3337 5.33594C17.3409 5.33594 18.2772 5.8273 20.1499 6.81004Z" stroke="#EB4C27" stroke-width="1.5" stroke-linecap="round"/>
<path d="M25.9334 11.2L21.6667 13.3333M16.3334 16L6.7334 11.2M16.3334 16V26.1333M16.3334 16C16.3334 16 19.2589 14.5373 21.1334 13.6C21.3417 13.4959 21.6667 13.3333 21.6667 13.3333M21.6667 13.3333V17.0667M21.6667 13.3333L11.5334 8" stroke="#EB4C27" stroke-width="1.5" stroke-linecap="round"/>
</svg>
