<svg width="33" height="32" viewBox="0 0 33 32" fill="none" xmlns="http://www.w3.org/2000/svg">
<path d="M7.85774 25.1264C9.13733 26.6682 11.5189 26.6682 16.282 26.6682H17.0513C21.8144 26.6682 24.1959 26.6682 25.4755 25.1264M7.85774 25.1264C6.57814 23.5846 7.01703 21.2438 7.89482 16.5623C8.51905 13.233 8.83117 11.5684 10.0161 10.585M7.85774 25.1264C7.85773 25.1264 7.85774 25.1264 7.85774 25.1264ZM25.4755 25.1264C26.7551 23.5846 26.3162 21.2438 25.4384 16.5623C24.8142 13.233 24.5021 11.5684 23.3171 10.585M25.4755 25.1264C25.4755 25.1264 25.4755 25.1264 25.4755 25.1264ZM23.3171 10.585C22.1322 9.60156 20.4385 9.60156 17.0513 9.60156H16.282C12.8947 9.60156 11.2011 9.60156 10.0161 10.585M23.3171 10.585C23.3171 10.585 23.3171 10.585 23.3171 10.585ZM10.0161 10.585C10.0161 10.585 10.0161 10.585 10.0161 10.585Z" stroke="#EB4C27" stroke-width="1.5"/>
<path d="M14.5332 18.4513C15.0886 18.9511 15.4 19.2314 15.9554 19.7313L18.7999 16.5312" stroke="#EB4C27" stroke-width="1.5" stroke-linecap="round" stroke-linejoin="round"/>
<path d="M13.4663 9.6026V8.53594C13.4663 6.76863 14.899 5.33594 16.6663 5.33594C18.4336 5.33594 19.8663 6.76863 19.8663 8.53594V9.6026" stroke="#EB4C27" stroke-width="1.5" stroke-linecap="round"/>
</svg>
