<svg width="32" height="32" viewBox="0 0 32 32" fill="none" xmlns="http://www.w3.org/2000/svg">
<circle cx="16.0001" cy="9.6026" r="4.26667" stroke="#EB4C27" stroke-width="1.5"/>
<path d="M22.3999 12.8021C24.1672 12.8021 25.5999 11.6082 25.5999 10.1354C25.5999 8.66266 24.1672 7.46875 22.3999 7.46875" stroke="#EB4C27" stroke-width="1.5" stroke-linecap="round"/>
<path d="M9.6001 12.8021C7.83279 12.8021 6.4001 11.6082 6.4001 10.1354C6.4001 8.66266 7.83279 7.46875 9.6001 7.46875" stroke="#EB4C27" stroke-width="1.5" stroke-linecap="round"/>
<ellipse cx="16.0001" cy="21.337" rx="6.4" ry="4.26667" stroke="#EB4C27" stroke-width="1.5"/>
<path d="M24.5332 23.4661C26.4044 23.0558 27.7332 22.0166 27.7332 20.7995C27.7332 19.5823 26.4044 18.5432 24.5332 18.1328" stroke="#EB4C27" stroke-width="1.5" stroke-linecap="round"/>
<path d="M7.4668 23.4661C5.5956 23.0558 4.2668 22.0166 4.2668 20.7995C4.2668 19.5823 5.5956 18.5432 7.4668 18.1328" stroke="#EB4C27" stroke-width="1.5" stroke-linecap="round"/>
</svg>
