<svg width="132" height="42" viewBox="0 0 132 42" fill="none" xmlns="http://www.w3.org/2000/svg">
<rect x="0.5" y="0.5" width="131" height="41" rx="7.5" stroke="#90969F"/>
<g clip-path="url(#clip0_2380_33905)">
<mask id="mask0_2380_33905" style="mask-type:luminance" maskUnits="userSpaceOnUse" x="12" y="8" width="108" height="26">
<path d="M120 8H12V33.9984H120V8Z" fill="white"/>
</mask>
<g mask="url(#mask0_2380_33905)">
<path d="M25.7491 8.15625C25.8501 9.47522 25.433 10.7816 24.5863 11.798C24.1809 12.3023 23.6664 12.7079 23.0814 12.9845C22.4965 13.2611 21.8564 13.4013 21.2094 13.3946C21.1682 12.7604 21.2523 12.1242 21.457 11.5224C21.6618 10.9207 21.9831 10.3652 22.4027 9.88772C23.2608 8.91032 24.4556 8.29211 25.7491 8.15625Z" fill="white"/>
<path d="M28.1104 17.7564C27.6805 18.5137 27.4492 19.3676 27.438 20.2384C27.439 21.2179 27.7284 22.1754 28.27 22.9916C28.8116 23.8078 29.5815 24.4464 30.4836 24.828C30.1289 25.9802 29.5943 27.0692 28.8995 28.0544C27.9664 29.4502 26.988 30.8139 25.4352 30.8391C24.6967 30.8562 24.1982 30.6438 23.6787 30.4225C23.1369 30.1917 22.5722 29.9512 21.6887 29.9512C20.7517 29.9512 20.1618 30.1994 19.5928 30.4389C19.1012 30.6458 18.6252 30.8461 17.9543 30.8739C16.4755 30.9287 15.3453 29.3842 14.3783 28.0014C12.4455 25.1776 10.9404 20.0435 12.9582 16.5501C13.424 15.7131 14.0986 15.011 14.9165 14.5122C15.7343 14.0135 16.6673 13.7351 17.6247 13.7041C18.4635 13.6869 19.2683 14.0102 19.9739 14.2936C20.5135 14.5103 20.9951 14.7038 21.3895 14.7038C21.7361 14.7038 22.2043 14.518 22.7499 14.3014C23.6094 13.9603 24.661 13.5429 25.7326 13.6554C26.5539 13.6811 27.3579 13.898 28.0807 14.2887C28.8035 14.6795 29.4253 15.2334 29.8966 15.9065C29.1547 16.3626 28.5402 16.999 28.1104 17.7564Z" fill="white"/>
<path d="M79.5078 29.3934C77.8023 29.3934 76.5542 28.5498 76.4105 27.265L74.4258 27.2649C74.5511 29.6083 76.491 31.0907 79.3641 31.0907C82.4349 31.0907 84.3656 29.5726 84.3656 27.1488C84.3656 25.2538 83.2612 24.186 80.603 23.5574L79.1756 23.2069C77.5058 22.7943 76.8231 22.2553 76.8231 21.3394C76.8231 20.1901 77.8919 19.4005 79.4538 19.4005C81.0157 19.4005 82.0844 20.181 82.2016 21.4739H84.1588C84.0957 19.2385 82.2189 17.7031 79.4813 17.7031C76.7152 17.7031 74.7671 19.2385 74.7671 21.4739C74.7671 23.2793 75.8716 24.3918 78.2506 24.9665L79.9296 25.371C81.6087 25.7836 82.3178 26.3857 82.3178 27.3913C82.3178 28.5498 81.142 29.3934 79.5078 29.3934Z" fill="white"/>
<path fill-rule="evenodd" clip-rule="evenodd" d="M40.7893 27.3758H45.7277L46.9126 30.8775H49.0399L44.3624 17.9219H42.1892L37.5117 30.8775H39.6034L40.7893 27.3758ZM45.2152 25.7599H41.3008L43.2316 20.0768H43.2856L45.2152 25.7599Z" fill="white"/>
<path fill-rule="evenodd" clip-rule="evenodd" d="M55.2018 30.9732C57.5726 30.9732 59.1437 29.0874 59.1437 26.1521C59.1437 23.2249 57.5634 21.3299 55.1661 21.3299C54.5607 21.3103 53.9613 21.4553 53.4316 21.7494C52.902 22.0434 52.462 22.4755 52.1585 22.9998H52.1228V21.4287H50.2461V33.9992H52.185V29.3207H52.2298C52.52 29.8474 52.9527 30.2818 53.4783 30.574C54.0039 30.8663 54.6012 31.0047 55.2018 30.9732ZM54.6547 22.9824C56.1625 22.9824 57.1508 24.2397 57.1508 26.1521C57.1508 28.0818 56.1626 29.3298 54.6547 29.3298C53.1733 29.3298 52.1768 28.0553 52.1768 26.1521C52.1768 24.2662 53.1733 22.9824 54.6547 22.9824Z" fill="white"/>
<path fill-rule="evenodd" clip-rule="evenodd" d="M69.5382 26.1521C69.5382 29.0874 67.9672 30.9732 65.5963 30.9732C64.9957 31.0046 64.3984 30.8663 63.8728 30.574C63.3472 30.2818 62.9146 29.8474 62.6244 29.3206H62.5795V33.9992H60.6406V21.4287H62.5173V22.9997H62.553C62.8565 22.4755 63.2965 22.0434 63.8261 21.7494C64.3558 21.4553 64.9552 21.3103 65.5606 21.3299C67.958 21.3299 69.5382 23.2249 69.5382 26.1521ZM67.5454 26.1521C67.5454 24.2397 66.5571 22.9824 65.0492 22.9824C63.5678 22.9824 62.5714 24.2662 62.5714 26.1521C62.5714 28.0553 63.5678 29.3298 65.0492 29.3298C66.5571 29.3298 67.5454 28.0818 67.5454 26.1521Z" fill="white"/>
<path d="M88.5519 19.1953V21.4307H90.3481V22.9661H88.5519V28.1734C88.5519 28.9823 88.9116 29.3593 89.7011 29.3593C89.9144 29.3556 90.1273 29.3406 90.339 29.3144V30.8407C89.9839 30.907 89.6231 30.937 89.262 30.9303C87.3497 30.9303 86.6039 30.212 86.6039 28.3802V22.9661H85.2305V21.4307H86.6038V19.1953H88.5519Z" fill="white"/>
<path fill-rule="evenodd" clip-rule="evenodd" d="M95.8705 21.3125C93.141 21.3125 91.3906 23.18 91.3906 26.152C91.3906 29.1321 93.1236 30.9915 95.8705 30.9915C98.6183 30.9915 100.351 29.1321 100.351 26.152C100.351 23.18 98.6091 21.3125 95.8705 21.3125ZM95.8705 22.91C97.4415 22.91 98.3758 24.1133 98.3758 26.152C98.3758 28.1989 97.4415 29.393 95.8705 29.393C94.2994 29.393 93.3662 28.1989 93.3662 26.152C93.3662 24.1225 94.2994 22.91 95.8705 22.91Z" fill="white"/>
<path d="M101.945 21.4286H103.795V23.0363H103.839C103.965 22.5342 104.259 22.0905 104.672 21.7797C105.086 21.4689 105.594 21.31 106.111 21.3298C106.335 21.329 106.558 21.3533 106.776 21.4021V23.2157C106.494 23.1295 106.199 23.0899 105.905 23.0985C105.623 23.0871 105.342 23.1367 105.081 23.2441C104.821 23.3514 104.586 23.5139 104.395 23.7203C104.203 23.9268 104.058 24.1724 103.97 24.4401C103.881 24.7079 103.852 24.9916 103.884 25.2717V30.8743H101.945V21.4286Z" fill="white"/>
<path fill-rule="evenodd" clip-rule="evenodd" d="M111.649 30.9915C113.785 30.9915 115.455 29.8148 115.716 28.1H113.875C113.703 28.5268 113.398 28.8867 113.005 29.1261C112.611 29.3654 112.152 29.4715 111.694 29.4286C111.345 29.4414 110.997 29.3799 110.674 29.2482C110.351 29.1164 110.06 28.9174 109.819 28.6643C109.579 28.4113 109.395 28.11 109.28 27.7805C109.165 27.451 109.122 27.1008 109.153 26.7531V26.636H115.824V25.9717C115.824 23.1077 114.181 21.3125 111.567 21.3125C108.91 21.3125 107.195 23.234 107.195 26.1968C107.195 29.1505 108.901 30.9915 111.649 30.9915ZM113.884 25.2809H109.162C109.161 24.9652 109.223 24.6524 109.343 24.3606C109.464 24.0689 109.641 23.8039 109.865 23.581C110.089 23.3581 110.354 23.1818 110.646 23.062C110.939 22.9423 111.251 22.8817 111.567 22.8836C111.88 22.8768 112.191 22.9349 112.481 23.054C112.77 23.1732 113.032 23.3509 113.249 23.576C113.467 23.8011 113.636 24.0688 113.745 24.3622C113.854 24.6555 113.901 24.9683 113.884 25.2809Z" fill="white"/>
<path d="M40.7549 10.7992H39.9225V11.6444H40.7814C41.6484 11.6444 42.1446 12.0244 42.1446 12.6414C42.1446 13.2496 41.6178 13.6811 40.8109 13.6811C40.004 13.6811 39.4569 13.2969 39.4008 12.7014H38.4727C38.5006 12.9778 38.5839 13.2457 38.7176 13.4892C38.8513 13.7327 39.0327 13.9468 39.2509 14.1187C39.4691 14.2906 39.7197 14.4168 39.9877 14.4898C40.2557 14.5627 40.5357 14.581 40.8109 14.5435C41.0856 14.5776 41.3643 14.5566 41.6307 14.4816C41.8971 14.4066 42.1459 14.2792 42.3624 14.1069C42.579 13.9345 42.7589 13.7206 42.8918 13.4778C43.0246 13.235 43.1076 12.9681 43.1359 12.6928C43.1509 12.3098 43.0137 11.9365 42.7542 11.6544C42.4948 11.3723 42.1342 11.2044 41.7513 11.1874V11.1141C42.0743 11.042 42.3628 10.8613 42.5686 10.6022C42.7744 10.343 42.8851 10.0211 42.8822 9.69023C42.8822 8.70246 42.0192 8.01627 40.7936 8.01627C40.5279 7.98175 40.258 8.00229 40.0007 8.07659C39.7434 8.15089 39.5041 8.27738 39.2977 8.44817C39.0914 8.61896 38.9224 8.83041 38.8013 9.06933C38.6802 9.30826 38.6096 9.56955 38.5939 9.83695H39.5078C39.5243 9.68965 39.5702 9.54715 39.6428 9.41788C39.7153 9.28861 39.813 9.17518 39.9301 9.08429C40.0472 8.9934 40.1813 8.9269 40.3246 8.88871C40.4678 8.85051 40.6172 8.8414 40.764 8.86192C41.4966 8.86192 41.9286 9.23278 41.9286 9.80689C41.9223 9.95116 41.8863 10.0926 41.8227 10.2222C41.7591 10.3519 41.6693 10.4669 41.5591 10.5601C41.4488 10.6534 41.3204 10.7227 41.182 10.7639C41.0436 10.8051 40.8982 10.8171 40.7549 10.7992Z" fill="white"/>
<path fill-rule="evenodd" clip-rule="evenodd" d="M45.9426 11.6591C44.826 11.7284 44.1953 12.2159 44.1953 13.0616C44.1961 13.2598 44.2384 13.4558 44.3195 13.6367C44.4007 13.8176 44.5188 13.9795 44.6664 14.112C44.8139 14.2444 44.9876 14.3445 45.1761 14.4058C45.3647 14.467 45.5641 14.488 45.7613 14.4675C46.0407 14.4805 46.3186 14.419 46.5665 14.2894C46.8144 14.1598 47.0235 13.9667 47.1724 13.7299H47.2457V14.3901H48.1393V11.1803C48.1393 10.1879 47.475 9.60156 46.2972 9.60156C45.2315 9.60156 44.4714 10.1191 44.3767 10.9261H45.2743C45.3782 10.5939 45.7358 10.4039 46.2534 10.4039C46.8881 10.4039 47.2152 10.6841 47.2152 11.1803V11.5858L45.9426 11.6591ZM47.2152 12.2674V12.6601C47.2051 12.8083 47.1654 12.953 47.0983 13.0855C47.0312 13.218 46.9381 13.3357 46.8246 13.4315C46.7111 13.5273 46.5795 13.5993 46.4376 13.6433C46.2957 13.6872 46.1464 13.7021 45.9987 13.6871C45.4943 13.6871 45.1275 13.4411 45.1275 13.0183C45.1275 12.6041 45.4209 12.384 46.0679 12.3407L47.2152 12.2674Z" fill="white"/>
<path d="M50.5951 10.4758V14.3932H49.668V9.69531H52.7612V10.4757L50.5951 10.4758Z" fill="white"/>
<path fill-rule="evenodd" clip-rule="evenodd" d="M56.4423 14.4709C57.6283 14.4709 58.3832 13.5351 58.3832 12.0425C58.3832 10.5494 57.6283 9.61765 56.4332 9.61768C56.1324 9.61028 55.8355 9.68615 55.5751 9.83691C55.3148 9.98767 55.1012 10.2075 54.9579 10.472H54.8886V9.6956H53.9961V15.9554H54.9232V13.6818H54.9966C55.1374 13.9374 55.3482 14.1475 55.6044 14.2873C55.8605 14.4271 56.1512 14.4908 56.4423 14.4709ZM56.1744 10.4506C56.9599 10.4506 57.4296 11.0502 57.4296 12.0425C57.4296 13.0389 56.9599 13.6385 56.1703 13.6385C55.394 13.6385 54.9059 13.0257 54.9059 12.0466C54.9059 11.0629 55.394 10.4506 56.1744 10.4506Z" fill="white"/>
<path d="M59.6195 16.0758V15.2776C59.7198 15.2903 59.8209 15.2961 59.9221 15.2949C60.1196 15.3095 60.3156 15.2507 60.4724 15.1297C60.6292 15.0087 60.7358 14.834 60.7718 14.6393L60.8411 14.4105L59.1406 9.69531H60.1503L61.3281 13.4268H61.4015L62.5752 9.69531H63.5584L61.807 14.5873C61.4056 15.7304 60.9614 16.0972 60.0036 16.0972C59.9262 16.0972 59.7061 16.0886 59.6195 16.0758Z" fill="white"/>
<path d="M65.2043 13.0606H64.2812C64.3669 14.0097 65.2002 14.4799 66.2262 14.4799C67.3867 14.4799 68.1469 13.889 68.1469 12.996C68.1497 12.7378 68.0578 12.4875 67.8884 12.2927C67.719 12.0978 67.4838 11.972 67.2277 11.9389V11.8656C67.4428 11.8144 67.634 11.691 67.769 11.516C67.904 11.3409 67.9748 11.1248 67.9696 10.9038C67.9696 10.1101 67.3308 9.60527 66.2141 9.60527C65.7868 9.54637 65.3533 9.65754 65.0071 9.91485C64.6609 10.1722 64.4297 10.5551 64.3629 10.9812H65.2564C65.3165 10.6104 65.6955 10.3903 66.2141 10.3903C66.7836 10.3903 67.0597 10.6536 67.0597 10.9985C67.0597 11.3913 66.7745 11.6068 66.2141 11.6068H65.5233V12.3271H66.2262C66.8824 12.3271 67.2227 12.5431 67.2227 12.996C67.2227 13.4188 66.8437 13.6908 66.2262 13.6908C65.6832 13.6908 65.295 13.4748 65.2043 13.0606Z" fill="white"/>
<path d="M69.4766 14.3932V9.69531H70.3956V12.9266H70.4689L72.634 9.69532H73.553V14.3932H72.634V11.1446H72.5647L70.3956 14.3932L69.4766 14.3932Z" fill="white"/>
<path d="M77.138 10.4757H78.6174V9.69531H74.7305V10.4757H76.2099V14.3932H77.138V10.4757Z" fill="white"/>
<path fill-rule="evenodd" clip-rule="evenodd" d="M83.6097 13.1218C83.4833 13.5511 83.2102 13.9224 82.8379 14.1708C82.4656 14.4193 82.0179 14.529 81.573 14.4809C81.2635 14.4891 80.9559 14.4298 80.6716 14.3072C80.3873 14.1846 80.1331 14.0015 79.9266 13.7708C79.7201 13.5401 79.5663 13.2672 79.4759 12.9711C79.3854 12.675 79.3605 12.3628 79.4028 12.056C79.3616 11.7484 79.387 11.4355 79.4772 11.1385C79.5675 10.8415 79.7205 10.5673 79.9258 10.3346C80.1312 10.1019 80.3842 9.91598 80.6677 9.78952C80.9512 9.66307 81.2585 9.59899 81.5689 9.60164C82.8761 9.60164 83.6657 10.4947 83.6657 11.9699V12.2935H80.3483V12.3454C80.3337 12.5178 80.3552 12.6915 80.4116 12.8551C80.468 13.0187 80.558 13.1687 80.6758 13.2954C80.7937 13.4222 80.9367 13.5229 81.0958 13.5911C81.2549 13.6592 81.4264 13.6934 81.5995 13.6913C81.8211 13.7178 82.0456 13.6778 82.2444 13.5764C82.4433 13.4749 82.6075 13.3167 82.7161 13.1217L83.6097 13.1218ZM80.3483 11.6078H82.7202C82.7319 11.4502 82.7105 11.2919 82.6574 11.143C82.6043 10.9942 82.5207 10.8581 82.4119 10.7435C82.3031 10.6289 82.1715 10.5383 82.0257 10.4776C81.8798 10.4168 81.7228 10.3872 81.5648 10.3908C81.4044 10.3886 81.2452 10.4186 81.0966 10.479C80.948 10.5394 80.813 10.6289 80.6996 10.7424C80.5862 10.8558 80.4967 10.9909 80.4363 11.1395C80.376 11.2881 80.3461 11.4474 80.3483 11.6078Z" fill="white"/>
<path fill-rule="evenodd" clip-rule="evenodd" d="M89.6611 9.69531H87.543V14.3932H89.6825C90.7136 14.3932 91.33 13.8583 91.33 13.0386C91.3333 12.7637 91.2309 12.4981 91.044 12.2965C90.857 12.095 90.5998 11.9729 90.3254 11.9556V11.8822C90.5514 11.8328 90.7535 11.7073 90.898 11.5266C91.0425 11.346 91.1205 11.1212 91.1191 10.8899C91.1191 10.1609 90.5801 9.69531 89.6611 9.69531ZM88.462 11.6235V10.407L89.4839 10.407C89.976 10.407 90.2093 10.6444 90.2093 11.0106C90.2093 11.408 89.9413 11.6235 89.381 11.6235H88.462ZM88.462 13.6816V12.3051L89.4452 12.3051C90.0708 12.3051 90.4029 12.5252 90.4029 12.9954C90.4029 13.4396 90.1095 13.6816 89.5613 13.6816H88.462Z" fill="white"/>
</g>
</g>
<defs>
<clipPath id="clip0_2380_33905">
<rect width="108" height="26" fill="white" transform="translate(12 8)"/>
</clipPath>
</defs>
</svg>
