<svg width="20" height="20" viewBox="0 0 20 20" fill="none" xmlns="http://www.w3.org/2000/svg">
<path d="M3.33337 10.0003C3.33337 7.48617 3.33337 6.22909 4.11442 5.44804C4.89547 4.66699 6.15255 4.66699 8.66671 4.66699H11.3334C13.8475 4.66699 15.1046 4.66699 15.8857 5.44804C16.6667 6.22909 16.6667 7.48617 16.6667 10.0003V11.3337C16.6667 13.8478 16.6667 15.1049 15.8857 15.8859C15.1046 16.667 13.8475 16.667 11.3334 16.667H8.66671C6.15255 16.667 4.89547 16.667 4.11442 15.8859C3.33337 15.1049 3.33337 13.8478 3.33337 11.3337V10.0003Z" stroke="#1E1E2A" stroke-width="1.5"/>
<path d="M6.66663 4.66699V3.66699" stroke="#1E1E2A" stroke-width="1.5" stroke-linecap="round"/>
<path d="M13.3334 4.66699V3.66699" stroke="#1E1E2A" stroke-width="1.5" stroke-linecap="round"/>
<path d="M3.66663 8H16.3333" stroke="#1E1E2A" stroke-width="1.5" stroke-linecap="round"/>
<path d="M14 13.3333C14 13.7015 13.7015 14 13.3333 14C12.9651 14 12.6666 13.7015 12.6666 13.3333C12.6666 12.9651 12.9651 12.6667 13.3333 12.6667C13.7015 12.6667 14 12.9651 14 13.3333Z" fill="#1E1E2A"/>
<path d="M14 10.6667C14 11.0349 13.7015 11.3333 13.3333 11.3333C12.9651 11.3333 12.6666 11.0349 12.6666 10.6667C12.6666 10.2985 12.9651 10 13.3333 10C13.7015 10 14 10.2985 14 10.6667Z" fill="#1E1E2A"/>
<path d="M10.6667 13.3333C10.6667 13.7015 10.3682 14 10 14C9.63185 14 9.33337 13.7015 9.33337 13.3333C9.33337 12.9651 9.63185 12.6667 10 12.6667C10.3682 12.6667 10.6667 12.9651 10.6667 13.3333Z" fill="#1E1E2A"/>
<path d="M10.6667 10.6667C10.6667 11.0349 10.3682 11.3333 10 11.3333C9.63185 11.3333 9.33337 11.0349 9.33337 10.6667C9.33337 10.2985 9.63185 10 10 10C10.3682 10 10.6667 10.2985 10.6667 10.6667Z" fill="#1E1E2A"/>
<path d="M7.33333 13.3333C7.33333 13.7015 7.03486 14 6.66667 14C6.29848 14 6 13.7015 6 13.3333C6 12.9651 6.29848 12.6667 6.66667 12.6667C7.03486 12.6667 7.33333 12.9651 7.33333 13.3333Z" fill="#1E1E2A"/>
<path d="M7.33333 10.6667C7.33333 11.0349 7.03486 11.3333 6.66667 11.3333C6.29848 11.3333 6 11.0349 6 10.6667C6 10.2985 6.29848 10 6.66667 10C7.03486 10 7.33333 10.2985 7.33333 10.6667Z" fill="#1E1E2A"/>
</svg>
