<svg width="16" height="16" viewBox="0 0 16 16" fill="none" xmlns="http://www.w3.org/2000/svg">
<circle cx="8.00008" cy="7.99984" r="5.33333" stroke="#0393BF"/>
<path d="M8 10.6665V7.4665" stroke="#0393BF" stroke-linecap="round"/>
<mask id="path-3-inside-1_2392_15880" fill="white">
<ellipse cx="0.533333" cy="0.533333" rx="0.533333" ry="0.533333" transform="matrix(1 0 0 -1 7.46655 6.3999)"/>
</mask>
<ellipse cx="0.533333" cy="0.533333" rx="0.533333" ry="0.533333" transform="matrix(1 0 0 -1 7.46655 6.3999)" fill="#0393BF"/>
<path d="M7.53322 5.86657C7.53322 6.1243 7.74215 6.33324 7.99989 6.33324V4.33324C8.84672 4.33324 9.53322 5.01973 9.53322 5.86657H7.53322ZM7.99989 6.33324C8.25762 6.33324 8.46655 6.1243 8.46655 5.86657H6.46655C6.46655 5.01973 7.15305 4.33324 7.99989 4.33324V6.33324ZM8.46655 5.86657C8.46655 5.60884 8.25762 5.3999 7.99989 5.3999V7.3999C7.15305 7.3999 6.46655 6.71341 6.46655 5.86657H8.46655ZM7.99989 5.3999C7.74215 5.3999 7.53322 5.60884 7.53322 5.86657H9.53322C9.53322 6.71341 8.84672 7.3999 7.99989 7.3999V5.3999Z" fill="#0393BF" mask="url(#path-3-inside-1_2392_15880)"/>
</svg>
