<svg width="20" height="20" viewBox="0 0 20 20" fill="none" xmlns="http://www.w3.org/2000/svg">
<path d="M6 9.33203C6 7.44641 6 6.5036 6.58579 5.91782C7.17157 5.33203 8.11438 5.33203 10 5.33203H12C13.8856 5.33203 14.8284 5.33203 15.4142 5.91782C16 6.5036 16 7.44641 16 9.33203V12.6654C16 14.551 16 15.4938 15.4142 16.0796C14.8284 16.6654 13.8856 16.6654 12 16.6654H10C8.11438 16.6654 7.17157 16.6654 6.58579 16.0796C6 15.4938 6 14.551 6 12.6654V9.33203Z" stroke="#EB4C27" stroke-width="1.5"/>
<path d="M6 14.6654C4.89543 14.6654 4 13.7699 4 12.6654V8.66536C4 6.15121 4 4.89413 4.78105 4.11308C5.5621 3.33203 6.81918 3.33203 9.33333 3.33203H12C13.1046 3.33203 14 4.22746 14 5.33203" stroke="#EB4C27" stroke-width="1.5"/>
</svg>
