<svg width="30" height="30" viewBox="0 0 30 30" fill="none" xmlns="http://www.w3.org/2000/svg">
<path d="M20 12C22.175 12.0121 23.3529 12.1086 24.1213 12.8769C25 13.7556 25 15.1698 25 17.9983V18.9983C25 21.8267 25 23.2409 24.1213 24.1196C23.2426 24.9983 21.8284 24.9983 19 24.9983H11C8.17157 24.9983 6.75736 24.9983 5.87868 24.1196C5 23.2409 5 21.8267 5 18.9983L5 17.9983C5 15.1698 5 13.7556 5.87868 12.8769C6.64706 12.1086 7.82497 12.0121 10 12" stroke="#626C7A" stroke-width="1.5" stroke-linecap="round"/>
<path d="M15 18L15 5M15 5L18 8.5M15 5L12 8.5" stroke="#626C7A" stroke-width="1.5" stroke-linecap="round" stroke-linejoin="round"/>
</svg>
