<svg width="20" height="20" viewBox="0 0 20 20" fill="none" xmlns="http://www.w3.org/2000/svg">
<path d="M4 8.66732C4 6.15316 4 4.89608 4.78105 4.11503C5.5621 3.33398 6.81918 3.33398 9.33333 3.33398H10.6667C13.1808 3.33398 14.4379 3.33398 15.219 4.11503C16 4.89608 16 6.15316 16 8.66732V11.334C16 13.8481 16 15.1052 15.219 15.8863C14.4379 16.6673 13.1808 16.6673 10.6667 16.6673H9.33333C6.81918 16.6673 5.5621 16.6673 4.78105 15.8863C4 15.1052 4 13.8481 4 11.334V8.66732Z" stroke="#EB4C27" stroke-width="1.5"/>
<path d="M7.33325 10H12.6666" stroke="#EB4C27" stroke-width="1.5" stroke-linecap="round"/>
<path d="M7.33325 7.33398H12.6666" stroke="#EB4C27" stroke-width="1.5" stroke-linecap="round"/>
<path d="M7.33325 12.666H10.6666" stroke="#EB4C27" stroke-width="1.5" stroke-linecap="round"/>
</svg>
