<svg width="24" height="24" viewBox="0 0 24 24" fill="none" xmlns="http://www.w3.org/2000/svg">
<rect width="24" height="24" rx="12" fill="white" fill-opacity="0.5"/>
<path d="M4 9.70909C4 13.5994 7.21554 15.6725 9.56939 17.5281C10.4 18.1829 11.2 18.7994 12 18.7994C12.8 18.7994 13.6 18.1829 14.4306 17.5281C16.7845 15.6725 20 13.5994 20 9.70909C20 5.81874 15.5999 3.05979 12 6.79992C8.40013 3.05979 4 5.81874 4 9.70909Z" fill="#EB4C27"/>
<path d="M9.56939 17.5281L9.10507 18.1171H9.10507L9.56939 17.5281ZM12 6.79992L11.4596 7.32002C11.601 7.46692 11.7961 7.54992 12 7.54992C12.2039 7.54992 12.399 7.46692 12.5404 7.32002L12 6.79992ZM14.4306 17.5281L13.9663 16.9391L14.4306 17.5281ZM10.0337 16.9391C8.81227 15.9763 7.50304 15.055 6.46279 13.8836C5.44825 12.7412 4.75 11.4202 4.75 9.70909H3.25C3.25 11.8883 4.15953 13.549 5.34122 14.8797C6.4972 16.1813 7.97265 17.2244 9.10507 18.1171L10.0337 16.9391ZM4.75 9.70909C4.75 8.04452 5.69036 6.65639 6.96185 6.07519C8.18605 5.5156 9.85165 5.64938 11.4596 7.32002L12.5404 6.27982C10.5485 4.21033 8.21408 3.85351 6.33825 4.71096C4.5097 5.54679 3.25 7.48332 3.25 9.70909H4.75ZM9.10507 18.1171C9.51348 18.4391 9.96146 18.7902 10.4178 19.0569C10.8739 19.3234 11.4096 19.5494 12 19.5494V18.0494C11.7904 18.0494 11.5261 17.9672 11.1746 17.7618C10.8232 17.5565 10.4559 17.272 10.0337 16.9391L9.10507 18.1171ZM14.8949 18.1171C16.0273 17.2244 17.5028 16.1813 18.6588 14.8797C19.8405 13.549 20.75 11.8883 20.75 9.70909H19.25C19.25 11.4202 18.5518 12.7412 17.5372 13.8836C16.497 15.055 15.1877 15.9763 13.9663 16.9391L14.8949 18.1171ZM20.75 9.70909C20.75 7.48332 19.4903 5.54679 17.6617 4.71096C15.7859 3.85351 13.4515 4.21033 11.4596 6.27982L12.5404 7.32002C14.1484 5.64938 15.8139 5.5156 17.0382 6.07519C18.3096 6.65639 19.25 8.04452 19.25 9.70909H20.75ZM13.9663 16.9391C13.5441 17.272 13.1768 17.5565 12.8254 17.7618C12.4739 17.9672 12.2096 18.0494 12 18.0494V19.5494C12.5904 19.5494 13.1261 19.3234 13.5822 19.0569C14.0385 18.7902 14.4865 18.4391 14.8949 18.1171L13.9663 16.9391Z" fill="#E2342B"/>
</svg>
