<svg width="20" height="20" viewBox="0 0 20 20" fill="none" xmlns="http://www.w3.org/2000/svg">
<path d="M7.97441 14.6073L8.43872 14.0183L7.97441 14.6073ZM9.99992 5.66709L9.45955 6.18719C9.60094 6.33408 9.79604 6.41709 9.99992 6.41709C10.2038 6.41709 10.3989 6.33408 10.5403 6.18719L9.99992 5.66709ZM12.0254 14.6073L12.4897 15.1962L12.0254 14.6073ZM8.43872 14.0183C7.41345 13.21 6.33627 12.4524 5.47904 11.4872C4.64752 10.5509 4.08325 9.47831 4.08325 8.0914H2.58325C2.58325 9.94644 3.3588 11.3587 4.35747 12.4832C5.33043 13.5788 6.57383 14.4582 7.51009 15.1962L8.43872 14.0183ZM4.08325 8.0914C4.08325 6.75102 4.84027 5.63995 5.85342 5.17683C6.81929 4.73533 8.15155 4.82823 9.45955 6.18719L10.5403 5.14699C8.84839 3.38917 6.84732 3.07324 5.22983 3.8126C3.65962 4.53035 2.58325 6.18982 2.58325 8.0914H4.08325ZM7.51009 15.1962C7.84928 15.4636 8.22932 15.7618 8.61834 15.9891C9.00711 16.2163 9.47619 16.4167 9.99992 16.4167V14.9167C9.85698 14.9167 9.65939 14.8601 9.37512 14.694C9.09109 14.5281 8.79171 14.2965 8.43872 14.0183L7.51009 15.1962ZM12.4897 15.1962C13.426 14.4582 14.6694 13.5788 15.6424 12.4832C16.641 11.3587 17.4166 9.94644 17.4166 8.0914H15.9166C15.9166 9.47831 15.3523 10.5509 14.5208 11.4872C13.6636 12.4524 12.5864 13.21 11.5611 14.0183L12.4897 15.1962ZM17.4166 8.0914C17.4166 6.18982 16.3402 4.53035 14.77 3.8126C13.1525 3.07324 11.1514 3.38917 9.45955 5.14699L10.5403 6.18719C11.8483 4.82823 13.1805 4.73533 14.1464 5.17683C15.1596 5.63995 15.9166 6.75102 15.9166 8.0914H17.4166ZM11.5611 14.0183C11.2081 14.2965 10.9087 14.5281 10.6247 14.694C10.3404 14.8601 10.1429 14.9167 9.99992 14.9167V16.4167C10.5237 16.4167 10.9927 16.2163 11.3815 15.9891C11.7705 15.7618 12.1506 15.4636 12.4897 15.1962L11.5611 14.0183Z" fill="#626C7A"/>
</svg>
