<svg width="40" height="40" viewBox="0 0 40 40" fill="none" xmlns="http://www.w3.org/2000/svg">
<path d="M24.5239 9.40616L24.0222 9.96363L24.5239 9.40616ZM29.8023 14.1567L29.3006 14.7142L29.8023 14.1567ZM32.872 17.5401L32.1869 17.8452L32.1869 17.8452L32.872 17.5401ZM8.22875 31.7725L8.75908 31.2422L8.75908 31.2422L8.22875 31.7725ZM31.7712 31.7725L31.2409 31.2422L31.2409 31.2422L31.7712 31.7725ZM22.6667 32.5846H17.3333V34.0846H22.6667V32.5846ZM7.41666 22.668V17.3346H5.91666V22.668H7.41666ZM32.5833 22.0852V22.668H34.0833V22.0852H32.5833ZM24.0222 9.96363L29.3006 14.7142L30.304 13.5992L25.0256 8.84869L24.0222 9.96363ZM34.0833 22.0852C34.0833 19.8119 34.0985 18.4505 33.5571 17.235L32.1869 17.8452C32.5682 18.7014 32.5833 19.6794 32.5833 22.0852H34.0833ZM29.3006 14.7142C31.0887 16.3235 31.8055 16.989 32.1869 17.8452L33.5571 17.235C33.0158 16.0194 31.9937 15.1199 30.304 13.5992L29.3006 14.7142ZM17.373 7.41797C19.4632 7.41797 20.3143 7.42955 21.0769 7.72221L21.6143 6.32178C20.5318 5.90639 19.3496 5.91797 17.373 5.91797V7.41797ZM25.0256 8.84869C23.5637 7.53294 22.6967 6.73712 21.6143 6.32178L21.0769 7.72221C21.8397 8.01491 22.4765 8.57252 24.0222 9.96363L25.0256 8.84869ZM17.3333 32.5846C14.798 32.5846 12.9719 32.583 11.5811 32.3961C10.212 32.212 9.37756 31.8607 8.75908 31.2422L7.69842 32.3029C8.64205 33.2465 9.84576 33.6762 11.3813 33.8827C12.8952 34.0862 14.8404 34.0846 17.3333 34.0846V32.5846ZM5.91666 22.668C5.91666 25.1609 5.91506 27.1061 6.11861 28.62C6.32505 30.1555 6.7548 31.3592 7.69842 32.3029L8.75908 31.2422C8.14061 30.6237 7.78931 29.7893 7.60523 28.4201C7.41825 27.0294 7.41666 25.2033 7.41666 22.668H5.91666ZM22.6667 34.0846C25.1596 34.0846 27.1048 34.0862 28.6187 33.8827C30.1542 33.6762 31.3579 33.2465 32.3016 32.3029L31.2409 31.2422C30.6224 31.8607 29.788 32.212 28.4188 32.3961C27.0281 32.583 25.202 32.5846 22.6667 32.5846V34.0846ZM32.5833 22.668C32.5833 25.2033 32.5817 27.0294 32.3947 28.4201C32.2107 29.7893 31.8594 30.6237 31.2409 31.2422L32.3016 32.3029C33.2452 31.3592 33.6749 30.1555 33.8814 28.62C34.0849 27.1061 34.0833 25.1609 34.0833 22.668H32.5833ZM7.41666 17.3346C7.41666 14.7993 7.41825 12.9732 7.60523 11.5825C7.78931 10.2133 8.14061 9.37887 8.75908 8.7604L7.69842 7.69974C6.7548 8.64336 6.32505 9.84708 6.11861 11.3826C5.91506 12.8965 5.91666 14.8417 5.91666 17.3346H7.41666ZM17.373 5.91797C14.8668 5.91797 12.9119 5.91639 11.3916 6.11986C9.85035 6.32614 8.64263 6.75553 7.69842 7.69974L8.75908 8.7604C9.37697 8.14251 10.214 7.79085 11.5906 7.6066C12.9883 7.41955 14.8245 7.41797 17.373 7.41797V5.91797Z" fill="#EB4C27"/>
<path d="M12 23.332H22.6667" stroke="#EB4C27" stroke-width="1.5" stroke-linecap="round"/>
<path d="M12 28H19.3333" stroke="#EB4C27" stroke-width="1.5" stroke-linecap="round"/>
<path d="M21.3333 7.33203V10.6654C21.3333 13.8081 21.3333 15.3794 22.3097 16.3557C23.286 17.332 24.8573 17.332 28 17.332H33.3333" stroke="#EB4C27" stroke-width="1.5"/>
</svg>
