<svg width="24" height="24" viewBox="0 0 24 24" fill="none" xmlns="http://www.w3.org/2000/svg">
<path d="M17.6 4.80078H6.4C5.26863 4.80078 4.70294 4.80078 4.35147 5.13054C4 5.4603 4 5.99103 4 7.05251V7.60436C4 8.43464 4 8.84977 4.20768 9.19392C4.41536 9.53806 4.79478 9.75164 5.55361 10.1788L7.88404 11.4907C8.39317 11.7773 8.64774 11.9206 8.83001 12.0788C9.20959 12.4084 9.44326 12.7956 9.54915 13.2705C9.6 13.4986 9.6 13.7654 9.6 14.2991L9.6 16.4347C9.6 17.1624 9.6 17.5262 9.80154 17.8098C10.0031 18.0934 10.361 18.2334 11.0769 18.5132C12.5798 19.1008 13.3313 19.3945 13.8656 19.0603C14.4 18.7261 14.4 17.9623 14.4 16.4347V14.2991C14.4 13.7654 14.4 13.4986 14.4508 13.2705C14.5567 12.7956 14.7904 12.4084 15.17 12.0788C15.3523 11.9206 15.6068 11.7773 16.116 11.4907L18.4464 10.1788C19.2052 9.75164 19.5846 9.53806 19.7923 9.19392C20 8.84977 20 8.43464 20 7.60436V7.05251C20 5.99103 20 5.4603 19.6485 5.13054C19.2971 4.80078 18.7314 4.80078 17.6 4.80078Z" stroke="#1E1E2A" stroke-width="1.5"/>
</svg>
