<svg width="24" height="24" viewBox="0 0 24 24" fill="none" xmlns="http://www.w3.org/2000/svg">
<g clip-path="url(#clip0_2242_20388)">
<path d="M12 24C18.6274 24 24 18.6274 24 12C24 5.37258 18.6274 0 12 0C5.37258 0 0 5.37258 0 12C0 18.6274 5.37258 24 12 24Z" fill="#D80027"/>
<path d="M6.56719 7.30469L7.60312 10.4922H10.9547L8.24531 12.4656L9.28125 15.6531L6.56719 13.6844L3.85313 15.6531L4.89375 12.4656L2.17969 10.4922H5.53125L6.56719 7.30469Z" fill="#FFDA44"/>
<path d="M14.2266 18.5867L13.4344 17.6117L12.2625 18.0664L12.9422 17.0117L12.15 16.032L13.3641 16.3555L14.0485 15.3008L14.1141 16.557L15.3328 16.8805L14.1563 17.3305L14.2266 18.5867Z" fill="#FFDA44"/>
<path d="M15.8016 15.7273L16.1766 14.5273L15.15 13.8008L16.4063 13.782L16.7766 12.582L17.1844 13.7727L18.4406 13.7586L17.4328 14.5086L17.836 15.6992L16.8094 14.9727L15.8016 15.7273Z" fill="#FFDA44"/>
<path d="M17.925 8.8082L17.3719 9.93789L18.2719 10.8145L17.0297 10.6363L16.4765 11.7613L16.2609 10.5238L15.014 10.3457L16.1297 9.75977L15.914 8.51758L16.814 9.39414L17.925 8.8082Z" fill="#FFDA44"/>
<path d="M14.2594 5.38672L14.1657 6.63828L15.3329 7.11172L14.1094 7.41172L14.0204 8.66797L13.3594 7.59922L12.136 7.89922L12.9469 6.93828L12.2813 5.87422L13.4485 6.34766L14.2594 5.38672Z" fill="#FFDA44"/>
</g>
<defs>
<clipPath id="clip0_2242_20388">
<rect width="24" height="24" fill="white"/>
</clipPath>
</defs>
</svg>
