<svg width="132" height="42" viewBox="0 0 132 42" fill="none" xmlns="http://www.w3.org/2000/svg">
<rect x="0.5" y="0.5" width="131" height="41" rx="7.5" stroke="#90969F"/>
<g clip-path="url(#clip0_2380_33874)">
<mask id="mask0_2380_33874" style="mask-type:luminance" maskUnits="userSpaceOnUse" x="12" y="8" width="108" height="26">
<path d="M120 8H12V33.9984H120V8Z" fill="white"/>
</mask>
<g mask="url(#mask0_2380_33874)">
<path fill-rule="evenodd" clip-rule="evenodd" d="M53.1517 11.695C53.1524 12.5279 52.8684 13.2432 52.3068 13.8199C51.7449 14.3992 51.0358 14.6912 50.2025 14.6905C49.3688 14.6912 48.6596 14.3992 48.0988 13.8199C47.5361 13.2429 47.2532 12.5279 47.2539 11.695C47.2532 10.8622 47.5361 10.1468 48.0988 9.56978C48.6596 8.99052 49.3688 8.6982 50.2025 8.69922C51.0318 8.6982 51.7387 8.99228 52.3032 9.57377C52.8677 10.153 53.1524 10.8669 53.1517 11.695ZM48.7588 13.2252C48.3657 12.8253 48.1693 12.3224 48.1683 11.695C48.1693 11.0677 48.3657 10.5647 48.7588 10.1649C49.1553 9.76513 49.6285 9.56904 50.2025 9.56793C50.7759 9.56904 51.2507 9.76513 51.6461 10.1649C52.0401 10.5647 52.2363 11.0677 52.2373 11.695C52.2363 12.3224 52.0401 12.8253 51.6461 13.2252C51.2507 13.6249 50.7759 13.821 50.2025 13.8221C49.6286 13.821 49.1553 13.6248 48.7588 13.2252Z" fill="white"/>
<path fill-rule="evenodd" clip-rule="evenodd" d="M41.5968 13.6974C42.0227 13.3148 42.2462 12.6642 42.2466 11.7241L42.2462 11.6641V8.82275H46.142V13.6974H46.7626V15.7448H45.8942V14.5654H41.8641V15.7448H40.9961V13.6974H41.5968ZM43.145 11.6622L43.1457 11.7393C43.1457 12.522 42.9959 13.1768 42.6922 13.6974H45.2421V9.69072H43.145V11.6622Z" fill="white"/>
<path d="M57.94 14.4137C57.545 14.5986 57.1136 14.6904 56.6519 14.6904C55.8132 14.6912 55.0986 14.4031 54.5294 13.8329C53.9574 13.2631 53.6708 12.5431 53.6719 11.695C53.6708 10.847 53.9574 10.1269 54.5294 9.55747C55.0986 8.98691 55.8132 8.69848 56.6519 8.69922C57.5116 8.6982 58.2255 9.01442 58.7636 9.63962L58.8207 9.70576L58.7578 9.76661L58.1872 10.3191L58.1235 10.2394C57.762 9.79014 57.2812 9.56942 56.6519 9.56793C56.0665 9.56905 55.5842 9.76226 55.1836 10.1548C54.7856 10.5463 54.587 11.0517 54.5862 11.695C54.587 12.3383 54.7853 12.8445 55.1833 13.2352C55.5839 13.6278 56.0665 13.821 56.6519 13.8221C57.2942 13.821 57.8318 13.5681 58.29 13.0468L58.3551 12.9722L58.9814 13.5989L58.9275 13.6636C58.6645 13.9798 58.3352 14.2306 57.94 14.4137Z" fill="white"/>
<path d="M61.8388 9.69072V14.5654H60.939V9.69072H59.3867V8.82275H63.3911V9.69072H61.8388Z" fill="white"/>
<path d="M66.0035 11.9057L67.3004 8.82373H68.3435L66.182 13.6423C65.887 14.3242 65.4155 14.6933 64.8016 14.6905C64.6156 14.6905 64.4198 14.6455 64.214 14.5591L64.1383 14.5273L64.1608 14.4484L64.3789 13.6752L64.4817 13.7331C64.5888 13.7935 64.6955 13.8221 64.8088 13.8221C64.963 13.8225 65.0719 13.7914 65.1395 13.7425C65.209 13.6937 65.2879 13.5887 65.3614 13.4263L65.5455 13.0218L63.6328 8.82373H64.6764L66.0035 11.9057Z" fill="white"/>
<path d="M68.918 14.5654V8.82275H73.1242V14.5654H72.2244V9.69072H69.8167V14.5654H68.918Z" fill="white"/>
<path d="M74.2109 14.5654V8.82275H75.1101V11.2053H77.7037V8.82275H78.6036V14.5654H77.7037V12.0581H75.1101V14.5654H74.2109Z" fill="white"/>
<path fill-rule="evenodd" clip-rule="evenodd" d="M85.2377 11.695C85.2385 12.5279 84.9547 13.2432 84.3928 13.8199C83.831 14.3992 83.1221 14.6912 82.2884 14.6905C81.4547 14.6912 80.7459 14.3992 80.1847 13.8199C79.6221 13.2429 79.3391 12.5279 79.3398 11.695C79.3391 10.8622 79.6221 10.1468 80.1847 9.56978C80.7459 8.99052 81.4547 8.6982 82.2884 8.69922C83.1177 8.6982 83.8248 8.99228 84.3892 9.57377C84.9537 10.153 85.2385 10.8669 85.2377 11.695ZM80.2543 11.695C80.2554 12.3224 80.4519 12.8253 80.8448 13.2252C81.2411 13.6249 81.7149 13.821 82.2884 13.8221C82.862 13.821 83.3367 13.6249 83.7321 13.2252C84.1262 12.8253 84.3226 12.3224 84.3234 11.695C84.3226 11.0677 84.1262 10.5647 83.7321 10.1649C83.3367 9.76513 82.862 9.56904 82.2884 9.56793C81.7149 9.56904 81.2411 9.76513 80.8448 10.1649C80.4519 10.5647 80.2554 11.0677 80.2543 11.695Z" fill="white"/>
<path fill-rule="evenodd" clip-rule="evenodd" d="M91.1208 11.5917C91.3418 11.6939 91.5304 11.8449 91.6817 12.0407C91.8697 12.2838 91.9661 12.5715 91.9652 12.8895C91.9661 13.3674 91.7855 13.7766 91.4335 14.0911C91.0843 14.4062 90.6637 14.5661 90.1876 14.5654H87.9766V8.82276H90.0792C90.534 8.82202 90.937 8.97577 91.2704 9.27717C91.6076 9.57967 91.7799 9.97184 91.779 10.4288C91.779 10.7085 91.7049 10.9622 91.5567 11.1795C91.4424 11.3495 91.2957 11.4871 91.1208 11.5917ZM88.8751 13.6974H90.2191C90.472 13.6959 90.6628 13.6128 90.8175 13.4405C90.9759 13.2625 91.0491 13.0779 91.05 12.8735C91.0491 12.6706 90.974 12.4886 90.811 12.312C90.6517 12.1431 90.4525 12.0591 90.1876 12.0581H88.8751V13.6974ZM88.8751 11.2053H90.0792C90.3284 11.2042 90.5127 11.1268 90.6591 10.9679C90.8092 10.8026 90.8786 10.6321 90.8796 10.4444C90.8786 10.2559 90.811 10.0866 90.6656 9.92451C90.5248 9.76853 90.3488 9.69221 90.1107 9.69073H88.8751V11.2053Z" fill="white"/>
<path d="M101.815 30.2208H103.544V18.6418H101.815V30.2208ZM117.384 22.8128L115.402 27.8329H115.343L113.287 22.8128H111.425L114.508 29.8293L112.75 33.7321H114.554L119.306 22.8128H117.384ZM107.582 28.9056C107.015 28.9056 106.225 28.6227 106.225 27.9223C106.225 27.0285 107.209 26.6859 108.058 26.6859C108.818 26.6859 109.175 26.8498 109.637 27.0735C109.503 28.1459 108.579 28.9056 107.582 28.9056ZM107.79 22.5595C106.539 22.5595 105.243 23.1109 104.706 24.3324L106.24 24.9728C106.568 24.3324 107.179 24.1236 107.82 24.1236C108.714 24.1236 109.622 24.6602 109.637 25.6135V25.7326C109.324 25.5538 108.654 25.2857 107.834 25.2857C106.181 25.2857 104.497 26.1942 104.497 27.8925C104.497 29.4418 105.853 30.44 107.372 30.44C108.535 30.44 109.175 29.9187 109.578 29.308H109.637V30.2016H111.305V25.7622C111.305 23.7068 109.771 22.5595 107.79 22.5595ZM97.108 24.2223H94.6496V20.2533H97.108C98.4002 20.2533 99.1338 21.3231 99.1338 22.2378C99.1338 23.1351 98.4002 24.2223 97.108 24.2223ZM97.0635 18.6418H92.9221V30.2208H94.6496V25.8339H97.0635C98.9791 25.8339 100.862 24.447 100.862 22.2378C100.862 20.0286 98.9791 18.6418 97.0635 18.6418ZM74.4797 28.9078C73.2856 28.9078 72.2859 27.9081 72.2859 26.535C72.2859 25.1475 73.2856 24.1327 74.4797 24.1327C75.6586 24.1327 76.5837 25.1475 76.5837 26.535C76.5837 27.9081 75.6586 28.9078 74.4797 28.9078ZM76.4643 23.4612H76.4046C76.0168 22.9987 75.2703 22.5809 74.3303 22.5809C72.3604 22.5809 70.5549 24.3117 70.5549 26.535C70.5549 28.7435 72.3604 30.4596 74.3303 30.4596C75.2703 30.4596 76.0168 30.0417 76.4046 29.5645H76.4643V30.1314C76.4643 31.6388 75.6586 32.4445 74.3603 32.4445C73.3008 32.4445 72.6441 31.6832 72.3752 31.0417L70.8683 31.6684C71.301 32.7129 72.4502 33.9963 74.3603 33.9963C76.3898 33.9963 78.1059 32.8023 78.1059 29.8926V22.8197H76.4643V23.4612ZM79.2996 30.2208H81.0307V18.6414H79.2996V30.2208ZM83.5826 26.4008C83.5378 24.8787 84.7615 24.1029 85.6418 24.1029C86.3288 24.1029 86.9105 24.4459 87.1041 24.9388L83.5826 26.4008ZM88.9548 25.0878C88.6269 24.2071 87.6265 22.5809 85.5821 22.5809C83.5526 22.5809 81.8665 24.1775 81.8665 26.5202C81.8665 28.7287 83.5378 30.4596 85.776 30.4596C87.582 30.4596 88.6269 29.3553 89.0595 28.7138L87.7163 27.8183C87.2689 28.475 86.6567 28.9078 85.776 28.9078C84.8957 28.9078 84.2691 28.5048 83.8659 27.7141L89.1336 25.5354L88.9548 25.0878ZM46.9863 23.7896V25.4608H50.9856C50.8662 26.4008 50.5528 27.0872 50.0752 27.5647C49.4934 28.1469 48.583 28.7884 46.9863 28.7884C44.524 28.7884 42.599 26.8038 42.599 24.3417C42.599 21.8796 44.524 19.8948 46.9863 19.8948C48.3145 19.8948 49.2842 20.4172 50.0006 21.0887L51.1795 19.91C50.1798 18.9548 48.8515 18.2236 46.9863 18.2236C43.6136 18.2236 40.7783 20.9693 40.7783 24.3417C40.7783 27.7141 43.6136 30.4596 46.9863 30.4596C48.807 30.4596 50.1798 29.863 51.2541 28.7435C52.3584 27.6393 52.7018 26.0875 52.7018 24.8342C52.7018 24.4459 52.6721 24.0881 52.612 23.7896H46.9863ZM57.2486 28.9078C56.0545 28.9078 55.0247 27.9229 55.0247 26.5202C55.0247 25.1026 56.0545 24.1327 57.2486 24.1327C58.4422 24.1327 59.4719 25.1026 59.4719 26.5202C59.4719 27.9229 58.4422 28.9078 57.2486 28.9078ZM57.2486 22.5809C55.0696 22.5809 53.2937 24.2372 53.2937 26.5202C53.2937 28.7884 55.0696 30.4596 57.2486 30.4596C59.4271 30.4596 61.203 28.7884 61.203 26.5202C61.203 24.2372 59.4271 22.5809 57.2486 22.5809ZM65.8753 28.9078C64.6817 28.9078 63.6518 27.9229 63.6518 26.5202C63.6518 25.1026 64.6817 24.1327 65.8753 24.1327C67.069 24.1327 68.0987 25.1026 68.0987 26.5202C68.0987 27.9229 67.069 28.9078 65.8753 28.9078ZM65.8753 22.5809C63.6964 22.5809 61.9209 24.2372 61.9209 26.5202C61.9209 28.7884 63.6964 30.4596 65.8753 30.4596C68.0539 30.4596 69.8298 28.7884 69.8298 26.5202C69.8298 24.2372 68.0539 22.5809 65.8753 22.5809Z" fill="white"/>
<path d="M12.4975 32.4298L12.4287 32.3639C12.1591 32.0787 12 31.6359 12 31.0625V31.1974V10.713V10.8486C12 10.2277 12.1855 9.75995 12.4964 9.47949L23.9729 20.955L12.4975 32.4298Z" fill="url(#paint0_linear_2380_33874)"/>
<path d="M27.7997 24.786L23.9736 20.9595L27.7993 17.1338L32.4181 19.7576C33.0046 20.0908 33.3339 20.5203 33.3889 20.9592C33.3889 20.9595 33.3889 20.9603 33.3889 20.9609C33.3339 21.3988 33.0046 21.8286 32.4181 22.1618L27.7997 24.786Z" fill="url(#paint1_linear_2380_33874)"/>
<path d="M13.316 32.7356C12.9954 32.736 12.7157 32.6314 12.4976 32.4346L23.973 20.9595L27.799 24.7859L14.3538 32.4248C13.9818 32.6358 13.6293 32.7356 13.316 32.7356ZM12.4943 32.5678C12.474 32.5493 12.4541 32.5298 12.4346 32.5095L12.4943 32.5678Z" fill="url(#paint2_linear_2380_33874)"/>
<path d="M23.9736 20.9569L12.4971 9.48139C12.7152 9.28493 12.9946 9.18073 13.3148 9.18073C13.6289 9.18073 13.9816 9.28095 14.3544 9.49222L27.7993 17.1311L23.9736 20.9569ZM14.3544 9.35699C13.9816 9.14563 13.6289 9.04541 13.3148 9.04541C13.3133 9.04541 13.3123 9.04541 13.3108 9.04541C13.3127 9.04541 13.3141 9.04541 13.3163 9.04541C13.6296 9.04541 13.982 9.14563 14.3544 9.35699Z" fill="url(#paint3_linear_2380_33874)"/>
<path d="M12.4952 32.5724L12.4923 32.5699C12.4934 32.5706 12.4945 32.5717 12.4952 32.5724ZM12.4326 32.5116L12.4268 32.5059C12.429 32.5081 12.4307 32.5098 12.4326 32.5116Z" fill="black"/>
<path d="M13.3144 32.871C12.9938 32.871 12.7137 32.7664 12.4956 32.5696C12.4948 32.5688 12.4934 32.5682 12.4923 32.5675L12.4326 32.5092C12.4307 32.5074 12.429 32.5052 12.4268 32.5031L12.4956 32.4343C12.7137 32.6311 12.9935 32.7357 13.314 32.7353C13.6273 32.7353 13.9798 32.6355 14.3518 32.4245L27.797 24.7856L27.8832 24.8718L27.7959 24.9213L14.3518 32.5599C14.0127 32.752 13.6903 32.8522 13.3991 32.8689C13.3705 32.8703 13.3422 32.871 13.3144 32.871Z" fill="url(#paint4_linear_2380_33874)"/>
<path d="M12.4287 32.5C12.1591 32.2148 12 31.7723 12 31.1985V31.0635C12 31.637 12.1591 32.0798 12.4287 32.365L12.4975 32.4309L12.4287 32.5Z" fill="url(#paint5_linear_2380_33874)"/>
<path d="M27.8859 24.8712L27.7998 24.7851L32.4182 22.1609C33.0047 21.8277 33.334 21.3978 33.389 20.96C33.389 21.1207 33.3532 21.2813 33.282 21.4377C33.1383 21.7528 32.8503 22.0505 32.4182 22.2962L27.8859 24.8712Z" fill="url(#paint6_linear_2380_33874)"/>
<path d="M33.3855 20.9569C33.3305 20.5181 33.0012 20.0886 32.4146 19.7553L27.7959 17.1315L27.882 17.0454L32.4146 19.6204C33.0613 19.988 33.3851 20.4724 33.3855 20.9569Z" fill="url(#paint7_linear_2380_33874)"/>
<path d="M12 10.8517V10.7164V10.7113V10.7102C12 10.6592 12.0014 10.6092 12.004 10.5608V10.5586L12.0043 10.5564V10.5521V10.551C12.0321 10.0571 12.1855 9.67174 12.4287 9.41451L12.4964 9.4825C12.1855 9.76298 12 10.2308 12 10.8517ZM12.4945 9.34976L12.4971 9.34717L12.4945 9.34976Z" fill="url(#paint8_linear_2380_33874)"/>
<path d="M27.7967 17.1326L14.3518 9.49369C13.979 9.28242 13.6263 9.1822 13.3122 9.1822C12.992 9.1822 12.7126 9.2864 12.4945 9.48285L12.4268 9.41487C12.4482 9.39245 12.4698 9.37068 12.4926 9.35012C12.4934 9.34938 12.4945 9.34864 12.4952 9.3479C12.7116 9.15293 12.988 9.04873 13.3053 9.04688C13.3061 9.04688 13.3071 9.04688 13.3082 9.04688C13.3097 9.04688 13.3107 9.04688 13.3122 9.04688C13.6263 9.04688 13.979 9.14709 14.3518 9.35846L27.8832 17.0462L27.7967 17.1326Z" fill="url(#paint9_linear_2380_33874)"/>
</g>
</g>
<defs>
<linearGradient id="paint0_linear_2380_33874" x1="22.9553" y1="10.4969" x2="7.41085" y2="26.0423" gradientUnits="userSpaceOnUse">
<stop stop-color="#00A0FF"/>
<stop offset="0.00657445" stop-color="#00A1FF"/>
<stop offset="0.2601" stop-color="#00BEFF"/>
<stop offset="0.5122" stop-color="#00D2FF"/>
<stop offset="0.7604" stop-color="#00DFFF"/>
<stop offset="1" stop-color="#00E3FF"/>
</linearGradient>
<linearGradient id="paint1_linear_2380_33874" x1="34.1035" y1="20.9601" x2="11.6901" y2="20.9601" gradientUnits="userSpaceOnUse">
<stop stop-color="#FFE000"/>
<stop offset="0.4087" stop-color="#FFBD00"/>
<stop offset="0.7754" stop-color="#FFA500"/>
<stop offset="1" stop-color="#FF9C00"/>
</linearGradient>
<linearGradient id="paint2_linear_2380_33874" x1="25.7594" y1="23.0855" x2="4.67997" y2="44.1662" gradientUnits="userSpaceOnUse">
<stop stop-color="#FF3A44"/>
<stop offset="1" stop-color="#C31162"/>
</linearGradient>
<linearGradient id="paint3_linear_2380_33874" x1="9.52248" y1="2.59477" x2="18.9353" y2="12.0082" gradientUnits="userSpaceOnUse">
<stop stop-color="#32A071"/>
<stop offset="0.0685" stop-color="#2DA771"/>
<stop offset="0.4762" stop-color="#15CF74"/>
<stop offset="0.8009" stop-color="#06E775"/>
<stop offset="1" stop-color="#00F076"/>
</linearGradient>
<linearGradient id="paint4_linear_2380_33874" x1="25.7574" y1="23.0852" x2="4.67801" y2="44.1659" gradientUnits="userSpaceOnUse">
<stop stop-color="#CC2E36"/>
<stop offset="1" stop-color="#9C0E4E"/>
</linearGradient>
<linearGradient id="paint5_linear_2380_33874" x1="22.9553" y1="10.4965" x2="7.40988" y2="26.042" gradientUnits="userSpaceOnUse">
<stop stop-color="#008DE0"/>
<stop offset="0.00657445" stop-color="#008DE0"/>
<stop offset="0.2601" stop-color="#00A7E0"/>
<stop offset="0.5122" stop-color="#00B8E0"/>
<stop offset="0.7604" stop-color="#00C4E0"/>
<stop offset="1" stop-color="#00C7E0"/>
</linearGradient>
<linearGradient id="paint6_linear_2380_33874" x1="34.1037" y1="20.9592" x2="11.6902" y2="20.9592" gradientUnits="userSpaceOnUse">
<stop stop-color="#E0C500"/>
<stop offset="0.4087" stop-color="#E0A600"/>
<stop offset="0.7754" stop-color="#E09100"/>
<stop offset="1" stop-color="#E08900"/>
</linearGradient>
<linearGradient id="paint7_linear_2380_33874" x1="34.1001" y1="20.9579" x2="11.6867" y2="20.9579" gradientUnits="userSpaceOnUse">
<stop stop-color="#FFE840"/>
<stop offset="0.4087" stop-color="#FFCE40"/>
<stop offset="0.7754" stop-color="#FFBC40"/>
<stop offset="1" stop-color="#FFB540"/>
</linearGradient>
<linearGradient id="paint8_linear_2380_33874" x1="22.9553" y1="10.4999" x2="7.40987" y2="26.0454" gradientUnits="userSpaceOnUse">
<stop stop-color="#40B8FF"/>
<stop offset="0.00657445" stop-color="#40B9FF"/>
<stop offset="0.2601" stop-color="#40CEFF"/>
<stop offset="0.5122" stop-color="#40DDFF"/>
<stop offset="0.7604" stop-color="#40E7FF"/>
<stop offset="1" stop-color="#40EAFF"/>
</linearGradient>
<linearGradient id="paint9_linear_2380_33874" x1="9.51988" y1="2.59623" x2="18.9327" y2="12.0096" gradientUnits="userSpaceOnUse">
<stop stop-color="#65B895"/>
<stop offset="0.0685" stop-color="#62BD95"/>
<stop offset="0.4762" stop-color="#50DB97"/>
<stop offset="0.8009" stop-color="#44ED98"/>
<stop offset="1" stop-color="#40F498"/>
</linearGradient>
<clipPath id="clip0_2380_33874">
<rect width="108" height="26" fill="white" transform="translate(12 8)"/>
</clipPath>
</defs>
</svg>
