<svg width="32" height="32" viewBox="0 0 32 32" fill="none" xmlns="http://www.w3.org/2000/svg">
<rect width="32" height="32" rx="16" fill="#EB4C27"/>
<path d="M21.5858 17.5787L18.5858 16.0787C18.4677 16.0199 18.3362 15.9933 18.2045 16.0015C18.0728 16.0097 17.9456 16.0525 17.8358 16.1256L16.4586 17.0444C15.8264 16.6968 15.3062 16.1766 14.9586 15.5444L15.8774 14.1672C15.9505 14.0573 15.9933 13.9302 16.0015 13.7985C16.0097 13.6668 15.9831 13.5353 15.9242 13.4172L14.4242 10.4172C14.3621 10.2916 14.266 10.186 14.1468 10.1123C14.0277 10.0385 13.8903 9.99964 13.7502 10C12.7556 10 11.8018 10.3951 11.0985 11.0984C10.3953 11.8016 10.0002 12.7554 10.0002 13.75C10.0027 15.9373 10.8726 18.0343 12.4193 19.5809C13.9659 21.1275 16.0629 21.9975 18.2502 22C18.7426 22 19.2303 21.903 19.6852 21.7145C20.1402 21.5261 20.5536 21.2499 20.9018 20.9017C21.25 20.5534 21.5263 20.14 21.7147 19.6851C21.9032 19.2301 22.0002 18.7425 22.0002 18.25C22.0003 18.1107 21.9616 17.9741 21.8884 17.8555C21.8152 17.7369 21.7104 17.6411 21.5858 17.5787ZM18.2502 20.5C16.4606 20.498 14.7448 19.7862 13.4794 18.5208C12.214 17.2553 11.5022 15.5396 11.5002 13.75C11.5 13.2298 11.6801 12.7256 12.0099 12.3233C12.3396 11.9209 12.7985 11.6452 13.3086 11.5431L14.3849 13.6994L13.4689 15.0625C13.4005 15.1652 13.3584 15.2831 13.3465 15.406C13.3345 15.5288 13.3531 15.6526 13.4005 15.7666C13.9371 17.0419 14.9517 18.0565 16.227 18.5931C16.3413 18.6426 16.4661 18.6629 16.5902 18.6521C16.7143 18.6413 16.8337 18.5998 16.9377 18.5312L18.3074 17.6181L20.4636 18.6944C20.3607 19.205 20.0838 19.6642 19.6802 19.9935C19.2765 20.3228 18.7711 20.5018 18.2502 20.5ZM16.0002 6.25C14.3169 6.24963 12.6621 6.68508 11.197 7.51396C9.73194 8.34285 8.50641 9.53692 7.63971 10.98C6.77302 12.423 6.29469 14.0659 6.25129 15.7486C6.20789 17.4314 6.60089 19.0967 7.39205 20.5825L6.32799 23.7747C6.23985 24.039 6.22706 24.3226 6.29105 24.5938C6.35504 24.8649 6.49328 25.1129 6.69029 25.3099C6.88729 25.5069 7.13526 25.6451 7.40642 25.7091C7.67757 25.7731 7.96119 25.7603 8.22549 25.6722L11.4177 24.6081C12.7253 25.3036 14.1741 25.6921 15.6543 25.744C17.1344 25.7959 18.6069 25.51 19.9601 24.9079C21.3132 24.3057 22.5114 23.4033 23.4636 22.269C24.4159 21.1346 25.0972 19.7983 25.4559 18.3613C25.8146 16.9244 25.8412 15.4246 25.5337 13.9758C25.2263 12.527 24.5928 11.1673 23.6813 9.99992C22.7699 8.83253 21.6045 7.88811 20.2736 7.23836C18.9427 6.58861 17.4812 6.25061 16.0002 6.25ZM16.0002 24.25C14.5498 24.251 13.125 23.8691 11.8696 23.1428C11.7776 23.0895 11.6754 23.0563 11.5697 23.0455C11.464 23.0347 11.3572 23.0464 11.2564 23.08L7.75018 24.25L8.91924 20.7438C8.95294 20.643 8.96485 20.5362 8.95418 20.4305C8.94351 20.3248 8.91051 20.2226 8.85736 20.1306C7.94796 18.5584 7.58284 16.7299 7.81864 14.929C8.05444 13.128 8.87798 11.4552 10.1615 10.1701C11.445 8.88491 13.1168 8.05925 14.9175 7.82118C16.7181 7.5831 18.547 7.94591 20.1204 8.85333C21.6938 9.76074 22.9238 11.162 23.6196 12.8398C24.3153 14.5176 24.4379 16.3781 23.9684 18.1327C23.4989 19.8873 22.4634 21.4379 21.0227 22.5439C19.582 23.65 17.8165 24.2497 16.0002 24.25Z" fill="white"/>
</svg>
