<svg width="25" height="24" viewBox="0 0 25 24" fill="none" xmlns="http://www.w3.org/2000/svg">
<path d="M10.0694 17.5281L10.5337 16.9391L10.0694 17.5281ZM12.5 6.79992L11.9596 7.32002C12.101 7.46692 12.2961 7.54992 12.5 7.54992C12.7039 7.54992 12.899 7.46692 13.0404 7.32002L12.5 6.79992ZM14.9306 17.5281L15.3949 18.1171L14.9306 17.5281ZM10.5337 16.9391C9.31227 15.9763 8.00304 15.055 6.96279 13.8836C5.94825 12.7412 5.25 11.4202 5.25 9.70909H3.75C3.75 11.8883 4.65953 13.549 5.84122 14.8797C6.9972 16.1813 8.47265 17.2244 9.60507 18.1171L10.5337 16.9391ZM5.25 9.70909C5.25 8.04452 6.19036 6.65639 7.46185 6.07519C8.68605 5.5156 10.3516 5.64938 11.9596 7.32002L13.0404 6.27982C11.0485 4.21033 8.71408 3.85351 6.83825 4.71096C5.0097 5.54679 3.75 7.48332 3.75 9.70909H5.25ZM9.60507 18.1171C10.0135 18.4391 10.4615 18.7902 10.9178 19.0569C11.3739 19.3234 11.9096 19.5494 12.5 19.5494V18.0494C12.2904 18.0494 12.0261 17.9672 11.6746 17.7618C11.3232 17.5565 10.9559 17.272 10.5337 16.9391L9.60507 18.1171ZM15.3949 18.1171C16.5273 17.2244 18.0028 16.1813 19.1588 14.8797C20.3405 13.549 21.25 11.8883 21.25 9.70909H19.75C19.75 11.4202 19.0518 12.7412 18.0372 13.8836C16.997 15.055 15.6877 15.9763 14.4663 16.9391L15.3949 18.1171ZM21.25 9.70909C21.25 7.48332 19.9903 5.54679 18.1617 4.71096C16.2859 3.85351 13.9515 4.21033 11.9596 6.27982L13.0404 7.32002C14.6484 5.64938 16.3139 5.5156 17.5382 6.07519C18.8096 6.65639 19.75 8.04452 19.75 9.70909H21.25ZM14.4663 16.9391C14.0441 17.272 13.6768 17.5565 13.3254 17.7618C12.9739 17.9672 12.7096 18.0494 12.5 18.0494V19.5494C13.0904 19.5494 13.6261 19.3234 14.0822 19.0569C14.5385 18.7902 14.9865 18.4391 15.3949 18.1171L14.4663 16.9391Z" fill="#1E1E2A"/>
</svg>
