<svg width="25" height="24" viewBox="0 0 25 24" fill="none" xmlns="http://www.w3.org/2000/svg">
<path d="M8.9002 16.7992C9.56294 16.7992 10.1002 17.3365 10.1002 17.9992C10.1002 18.662 9.56294 19.1992 8.9002 19.1992C8.23745 19.1992 7.7002 18.662 7.7002 17.9992C7.7002 17.3365 8.23745 16.7992 8.9002 16.7992Z" stroke="#1E1E2A" stroke-width="1.5"/>
<path d="M16.0999 16.7993C16.7626 16.7993 17.2999 17.3365 17.2999 17.9993C17.2999 18.662 16.7626 19.1993 16.0999 19.1993C15.4372 19.1993 14.8999 18.662 14.8999 17.9993C14.8999 17.3365 15.4372 16.7993 16.0999 16.7993Z" stroke="#1E1E2A" stroke-width="1.5"/>
<path d="M4.70897 4.87425L4.95773 4.16671H4.95773L4.70897 4.87425ZM4.74876 4.09324C4.35799 3.95585 3.92984 4.16126 3.79246 4.55202C3.65507 4.94279 3.86048 5.37094 4.25124 5.50833L4.74876 4.09324ZM6.56867 5.85917L7.1879 5.43602V5.43602L6.56867 5.85917ZM7.61017 14.0697L7.06591 14.5857H7.06591L7.61017 14.0697ZM19.4262 10.307L20.1608 10.4584L20.1617 10.4538L19.4262 10.307ZM19.0264 12.2468L19.761 12.3982V12.3982L19.0264 12.2468ZM19.4876 7.75845L18.8932 8.21575L19.4876 7.75845ZM18.2069 14.4411L17.7331 13.8597L17.7331 13.8597L18.2069 14.4411ZM7.61646 10.2088V8.03147H6.11646V10.2088H7.61646ZM4.95773 4.16671L4.74876 4.09324L4.25124 5.50833L4.46021 5.58179L4.95773 4.16671ZM11.65 15.5508H15.8923V14.0508H11.65V15.5508ZM7.61646 8.03147C7.61646 7.46902 7.61748 6.98745 7.57488 6.59389C7.53046 6.18349 7.43265 5.79418 7.1879 5.43602L5.94944 6.28232C6.00248 6.35993 6.05357 6.47794 6.0836 6.75532C6.11544 7.04955 6.11646 7.43623 6.11646 8.03147H7.61646ZM4.46021 5.58179C4.99766 5.77075 5.33879 5.89198 5.58725 6.01389C5.81609 6.12617 5.89861 6.20793 5.94944 6.28232L7.1879 5.43602C6.94094 5.07462 6.61424 4.84697 6.248 4.66726C5.90137 4.49718 5.46155 4.34384 4.95773 4.16671L4.46021 5.58179ZM6.11646 10.2088C6.11646 11.3671 6.12693 12.2189 6.23916 12.8742C6.36066 13.5836 6.60631 14.101 7.06591 14.5857L8.15444 13.5537C7.92091 13.3074 7.79471 13.071 7.71763 12.621C7.63129 12.1169 7.61646 11.4037 7.61646 10.2088H6.11646ZM11.65 14.0508C10.5121 14.0508 9.73819 14.049 9.15863 13.9668C8.60492 13.8883 8.34034 13.7498 8.15444 13.5537L7.06591 14.5857C7.57313 15.1207 8.21289 15.3477 8.94803 15.452C9.6573 15.5525 10.5567 15.5508 11.65 15.5508V14.0508ZM6.86646 8.04678H16.5711V6.54678H6.86646V8.04678ZM18.6917 10.1556L18.2919 12.0954L19.761 12.3982L20.1608 10.4584L18.6917 10.1556ZM16.5711 8.04678C17.2589 8.04678 17.8526 8.04778 18.3183 8.09985C18.5493 8.12567 18.7138 8.16075 18.823 8.19914C18.9382 8.23962 18.9283 8.26149 18.8932 8.21575L20.0821 7.30114C19.8693 7.02457 19.5746 6.87331 19.3203 6.78396C19.06 6.6925 18.7702 6.64102 18.485 6.60913C17.9182 6.54578 17.2311 6.54678 16.5711 6.54678V8.04678ZM20.1617 10.4538C20.2962 9.7798 20.4139 9.19881 20.4428 8.73033C20.4727 8.24551 20.4195 7.73982 20.0821 7.30114L18.8932 8.21575C18.9108 8.23874 18.9658 8.3117 18.9457 8.63792C18.9245 8.98047 18.8339 9.44292 18.6907 10.1602L20.1617 10.4538ZM15.8923 15.5508C16.4979 15.5508 17.02 15.5521 17.4435 15.5003C17.8874 15.4459 18.3094 15.3251 18.6807 15.0225L17.7331 13.8597C17.6631 13.9168 17.5521 13.9758 17.2613 14.0114C16.95 14.0495 16.5355 14.0508 15.8923 14.0508V15.5508ZM18.2919 12.0954C18.162 12.7253 18.0771 13.131 17.9769 13.4282C17.8833 13.7059 17.8032 13.8026 17.7331 13.8597L18.6807 15.0225C19.052 14.7199 19.2555 14.331 19.3984 13.9072C19.5346 13.503 19.6387 12.9913 19.761 12.3982L18.2919 12.0954Z" fill="#1E1E2A"/>
</svg>
