<svg width="32" height="32" viewBox="0 0 32 32" fill="none" xmlns="http://www.w3.org/2000/svg">
<rect width="32" height="32" rx="16" fill="#EB4C27"/>
<path d="M15.23 9.85372L15.7492 10.7841C16.2177 11.6236 16.0296 12.725 15.2917 13.463C15.2917 13.463 15.2917 13.463 15.2917 13.463C15.2916 13.4631 14.3966 14.3583 16.0195 15.9812C17.6417 17.6034 18.5368 16.7098 18.5377 16.709C18.5377 16.709 18.5377 16.709 18.5377 16.709C19.2757 15.971 20.3771 15.7829 21.2166 16.2515L22.147 16.7707C23.4148 17.4782 23.5645 19.2562 22.4501 20.3705C21.7805 21.0401 20.9602 21.5612 20.0534 21.5955C18.5269 21.6534 15.9345 21.2671 13.3341 18.6666C10.7336 16.0662 10.3473 13.4738 10.4051 11.9473C10.4395 11.0405 10.9605 10.2202 11.6301 9.55057C12.7445 8.43621 14.5224 8.58593 15.23 9.85372Z" stroke="white" stroke-width="1.5" stroke-linecap="round"/>
</svg>
