<svg width="24" height="24" viewBox="0 0 24 24" fill="none" xmlns="http://www.w3.org/2000/svg">
<path d="M4 13.5992C4 10.5822 4 9.07374 4.93726 8.13648C5.87452 7.19922 7.38301 7.19922 10.4 7.19922H13.6C16.617 7.19922 18.1255 7.19922 19.0627 8.13648C20 9.07374 20 10.5822 20 13.5992C20 16.6162 20 18.1247 19.0627 19.062C18.1255 19.9992 16.617 19.9992 13.6 19.9992H10.4C7.38301 19.9992 5.87452 19.9992 4.93726 19.062C4 18.1247 4 16.6162 4 13.5992Z" stroke="#1E1E2A" stroke-width="1.5"/>
<path d="M15.2 7.2C15.2 5.69151 15.2 4.93726 14.7314 4.46863C14.2627 4 13.5085 4 12 4C10.4915 4 9.73726 4 9.26863 4.46863C8.8 4.93726 8.8 5.69151 8.8 7.2" stroke="#1E1E2A" stroke-width="1.5"/>
<path d="M12 16.2651C12.8837 16.2651 13.6 15.6682 13.6 14.9318C13.6 14.1954 12.8837 13.5984 12 13.5984C11.1163 13.5984 10.4 13.0015 10.4 12.2651C10.4 11.5287 11.1163 10.9318 12 10.9318M12 16.2651C11.1163 16.2651 10.4 15.6682 10.4 14.9318M12 16.2651V16.7984M12 10.3984V10.9318M12 10.9318C12.8837 10.9318 13.6 11.5287 13.6 12.2651" stroke="#1E1E2A" stroke-width="1.5" stroke-linecap="round"/>
</svg>
