<svg width="20" height="20" viewBox="0 0 20 20" fill="none" xmlns="http://www.w3.org/2000/svg">
<path d="M15 10.8307H10.8333V14.9974C10.8333 15.2184 10.7455 15.4304 10.5893 15.5867C10.433 15.7429 10.221 15.8307 10 15.8307C9.77899 15.8307 9.56703 15.7429 9.41075 15.5867C9.25447 15.4304 9.16667 15.2184 9.16667 14.9974V10.8307H5.00001C4.77899 10.8307 4.56703 10.7429 4.41075 10.5867C4.25447 10.4304 4.16667 10.2184 4.16667 9.9974C4.16667 9.77638 4.25447 9.56442 4.41075 9.40814C4.56703 9.25186 4.77899 9.16406 5.00001 9.16406H9.16667V4.9974C9.16667 4.77638 9.25447 4.56442 9.41075 4.40814C9.56703 4.25186 9.77899 4.16406 10 4.16406C10.221 4.16406 10.433 4.25186 10.5893 4.40814C10.7455 4.56442 10.8333 4.77638 10.8333 4.9974V9.16406H15C15.221 9.16406 15.433 9.25186 15.5893 9.40814C15.7455 9.56442 15.8333 9.77638 15.8333 9.9974C15.8333 10.2184 15.7455 10.4304 15.5893 10.5867C15.433 10.7429 15.221 10.8307 15 10.8307Z" fill="#EB4C27"/>
</svg>
