<svg width="24" height="24" viewBox="0 0 24 24" fill="none" xmlns="http://www.w3.org/2000/svg">
<path d="M13.8172 13.8172C13.5818 14.0698 13.2979 14.2724 12.9825 14.413C12.6671 14.5535 12.3266 14.6291 11.9813 14.6352C11.6361 14.6413 11.2931 14.5778 10.9729 14.4484C10.6527 14.3191 10.3619 14.1266 10.1177 13.8824C9.87351 13.6383 9.68101 13.3474 9.55168 13.0272C9.42235 12.707 9.35884 12.3641 9.36493 12.0188C9.37103 11.6735 9.4466 11.333 9.58714 11.0176C9.72769 10.7022 9.93032 10.4183 10.183 10.1829M2.57153 2.57144L21.4287 21.4286M17.0915 17.0914C15.6263 18.2083 13.8422 18.827 12.0001 18.8572C6.0001 18.8572 2.57153 12 2.57153 12C3.63772 10.0131 5.11651 8.27711 6.90868 6.90858L17.0915 17.0914ZM10.2001 5.34858C10.7901 5.21048 11.3942 5.14145 12.0001 5.14287C18.0001 5.14287 21.4287 12 21.4287 12C20.9084 12.9734 20.2879 13.8898 19.5772 14.7343L10.2001 5.34858Z" stroke="#626C7A" stroke-width="1.5" stroke-linecap="round" stroke-linejoin="round"/>
</svg>
