<svg width="24" height="24" viewBox="0 0 24 24" fill="none" xmlns="http://www.w3.org/2000/svg">
<path d="M17.6 10.1633V9.6C17.6 6.50721 15.0928 4 12 4C8.90718 4 6.39998 6.50721 6.39998 9.6V10.1633C6.39998 10.8393 6.19988 11.5001 5.82491 12.0626L4.90603 13.4409C4.06672 14.6999 4.70746 16.4111 6.16723 16.8092C9.98599 17.8507 14.014 17.8507 17.8327 16.8092C19.2925 16.4111 19.9332 14.6999 19.0939 13.4409L18.175 12.0626C17.8001 11.5001 17.6 10.8393 17.6 10.1633Z" stroke="#626C7A" stroke-width="1.5"/>
<path d="M8.40002 17.6C8.92405 18.9982 10.338 20 12 20C13.6621 20 15.076 18.9982 15.6 17.6" stroke="#626C7A" stroke-width="1.5" stroke-linecap="round"/>
</svg>
