<svg width="24" height="24" viewBox="0 0 24 24" fill="none" xmlns="http://www.w3.org/2000/svg">
<path d="M14.8622 5.10557L16.4622 5.94522C18.1835 6.84853 19.0442 7.30019 19.5221 8.11179C20 8.9234 20 9.93334 20 11.9532V12.0468C20 14.0667 20 15.0766 19.5221 15.8882C19.0442 16.6998 18.1835 17.1515 16.4622 18.0548L14.8622 18.8944C13.4577 19.6315 12.7554 20 12 20C11.2446 20 10.5423 19.6315 9.13783 18.8944L7.53783 18.0548C5.8165 17.1515 4.95583 16.6998 4.47792 15.8882C4 15.0766 4 14.0667 4 12.0468V11.9532C4 9.93334 4 8.9234 4.47792 8.11179C4.95583 7.30019 5.8165 6.84853 7.53783 5.94521L9.13783 5.10557C10.5423 4.36852 11.2446 4 12 4C12.7554 4 13.4577 4.36852 14.8622 5.10557Z" stroke="#626C7A" stroke-width="1.5" stroke-linecap="round"/>
<path d="M19.2 8.4L16 10M12 12L4.80005 8.4M12 12V19.6M12 12C12 12 14.1942 10.9029 15.6 10.2C15.7563 10.1219 16 10 16 10M16 10V12.8M16 10L8.40005 6" stroke="#626C7A" stroke-width="1.5" stroke-linecap="round"/>
</svg>
