<svg width="24" height="24" viewBox="0 0 24 24" fill="none" xmlns="http://www.w3.org/2000/svg">
<path d="M20 20L4 20" stroke="#626C7A" stroke-width="1.5" stroke-linecap="round"/>
<path d="M4 11.1992L10.5007 5.99857C11.3773 5.29735 12.6227 5.29735 13.4993 5.99857L20 11.1992" stroke="#626C7A" stroke-width="1.5" stroke-linecap="round"/>
<path d="M14.8 6.80078V5.20078C14.8 4.97987 14.9791 4.80078 15.2 4.80078H17.2C17.421 4.80078 17.6 4.97987 17.6 5.20078V9.20078" stroke="#626C7A" stroke-width="1.5" stroke-linecap="round"/>
<path d="M5.59998 20V10" stroke="#626C7A" stroke-width="1.5" stroke-linecap="round"/>
<path d="M18.4 20V10" stroke="#626C7A" stroke-width="1.5" stroke-linecap="round"/>
<path d="M14.4 19.9996V15.9996C14.4 14.8682 14.4 14.3026 14.0485 13.9511C13.697 13.5996 13.1313 13.5996 12 13.5996C10.8686 13.5996 10.3029 13.5996 9.95145 13.9511C9.59998 14.3026 9.59998 14.8682 9.59998 15.9996V19.9996" stroke="#626C7A" stroke-width="1.5"/>
<path d="M13.6 10.0004C13.6 10.884 12.8837 11.6004 12 11.6004C11.1164 11.6004 10.4 10.884 10.4 10.0004C10.4 9.11673 11.1164 8.40039 12 8.40039C12.8837 8.40039 13.6 9.11673 13.6 10.0004Z" stroke="#626C7A" stroke-width="1.5"/>
</svg>
