<svg width="24" height="24" viewBox="0 0 24 24" fill="none" xmlns="http://www.w3.org/2000/svg">
<path d="M10.4 19.9992C13.9346 19.9992 16.8 17.1338 16.8 13.5992C16.8 10.0646 13.9346 7.19922 10.4 7.19922C6.86538 7.19922 4 10.0646 4 13.5992C4 14.5876 4.22406 15.5237 4.62416 16.3594C4.76167 16.6467 4.80996 16.9721 4.72764 17.2797L4.46521 18.2605C4.25836 19.0336 4.96561 19.7409 5.73868 19.534L6.71951 19.2716C7.02715 19.1893 7.35257 19.2375 7.6398 19.3751C8.47552 19.7752 9.4116 19.9992 10.4 19.9992Z" stroke="#626C7A" stroke-width="1.5"/>
<path d="M16.8 14.0015C16.8532 13.9793 16.9059 13.9563 16.9582 13.9324C17.2479 13.8001 17.5729 13.7506 17.8805 13.8329L18.2613 13.9348C19.0344 14.1416 19.7416 13.4344 19.5348 12.6613L19.4329 12.2805C19.3506 11.9729 19.4001 11.6478 19.5324 11.3582C19.8327 10.7008 20 9.96994 20 9.2C20 6.32812 17.6719 4 14.8 4C12.6382 4 10.7845 5.31919 10 7.19648" stroke="#626C7A" stroke-width="1.5"/>
<path d="M8.40005 13.6008C8.40005 14.0426 8.04188 14.4008 7.60005 14.4008C7.15822 14.4008 6.80005 14.0426 6.80005 13.6008C6.80005 13.159 7.15822 12.8008 7.60005 12.8008C8.04188 12.8008 8.40005 13.159 8.40005 13.6008Z" fill="#626C7A"/>
<path d="M11.2 13.6008C11.2 14.0426 10.8419 14.4008 10.4 14.4008C9.95822 14.4008 9.60005 14.0426 9.60005 13.6008C9.60005 13.159 9.95822 12.8008 10.4 12.8008C10.8419 12.8008 11.2 13.159 11.2 13.6008Z" fill="#626C7A"/>
<path d="M14 13.6008C14 14.0426 13.6419 14.4008 13.2 14.4008C12.7582 14.4008 12.4 14.0426 12.4 13.6008C12.4 13.159 12.7582 12.8008 13.2 12.8008C13.6419 12.8008 14 13.159 14 13.6008Z" fill="#626C7A"/>
</svg>
