<svg width="24" height="24" viewBox="0 0 24 24" fill="none" xmlns="http://www.w3.org/2000/svg">
<circle cx="12" cy="11.9996" r="2.4" stroke="#626C7A" stroke-width="1.5"/>
<path d="M13.4123 4.12179C13.1182 4 12.7455 4 12 4C11.2545 4 10.8817 4 10.5877 4.12179C10.1956 4.28418 9.88415 4.59566 9.72176 4.98771C9.64763 5.16667 9.61862 5.3748 9.60727 5.67839C9.59058 6.12454 9.36178 6.53752 8.97513 6.76074C8.58849 6.98397 8.11645 6.97563 7.72173 6.76701C7.45313 6.62504 7.25838 6.5461 7.06632 6.52081C6.64561 6.46542 6.22012 6.57943 5.88346 6.83776C5.63097 7.0315 5.44459 7.35432 5.07184 7.99995C4.69909 8.64557 4.51271 8.96839 4.47117 9.28392C4.41578 9.70464 4.52979 10.1301 4.78812 10.4668C4.90603 10.6204 5.07174 10.7496 5.32892 10.9112C5.70701 11.1488 5.95029 11.5535 5.95026 12C5.95024 12.4465 5.70697 12.8511 5.32892 13.0887C5.07169 13.2503 4.90596 13.3795 4.78804 13.5332C4.52971 13.8698 4.4157 14.2953 4.47109 14.716C4.51263 15.0316 4.69901 15.3544 5.07176 16C5.44452 16.6456 5.63089 16.9684 5.88339 17.1622C6.22004 17.4205 6.64553 17.5345 7.06625 17.4791C7.25829 17.4538 7.45303 17.3749 7.72161 17.233C8.11635 17.0243 8.58842 17.016 8.97509 17.2392C9.36177 17.4625 9.59058 17.8755 9.60727 18.3217C9.61862 18.6252 9.64763 18.8333 9.72176 19.0123C9.88415 19.4043 10.1956 19.7158 10.5877 19.8782C10.8817 20 11.2545 20 12 20C12.7455 20 13.1182 20 13.4123 19.8782C13.8043 19.7158 14.1158 19.4043 14.2782 19.0123C14.3523 18.8333 14.3813 18.6252 14.3927 18.3216C14.4093 17.8754 14.6381 17.4625 15.0248 17.2392C15.4114 17.016 15.8835 17.0243 16.2783 17.2329C16.5468 17.3749 16.7416 17.4538 16.9336 17.4791C17.3543 17.5345 17.7798 17.4205 18.1165 17.1621C18.369 16.9684 18.5553 16.6456 18.9281 15.9999C19.3008 15.3543 19.4872 15.0315 19.5288 14.716C19.5842 14.2953 19.4701 13.8698 19.2118 13.5331C19.0939 13.3794 18.9282 13.2503 18.671 13.0886C18.2929 12.8511 18.0496 12.4464 18.0497 11.9999C18.0497 11.5535 18.2929 11.1489 18.671 10.9114C18.9282 10.7497 19.094 10.6205 19.2119 10.4668C19.4702 10.1302 19.5842 9.7047 19.5288 9.28398C19.4873 8.96844 19.3009 8.64563 18.9282 8C18.5554 7.35437 18.369 7.03156 18.1165 6.83781C17.7799 6.57949 17.3544 6.46548 16.9337 6.52087C16.7416 6.54615 16.5469 6.62509 16.2783 6.76704C15.8836 6.97567 15.4115 6.98401 15.0248 6.76077C14.6382 6.53752 14.4094 6.12453 14.3927 5.67835C14.3813 5.37478 14.3523 5.16666 14.2782 4.98771C14.1158 4.59566 13.8043 4.28418 13.4123 4.12179Z" stroke="#626C7A" stroke-width="1.5"/>
</svg>
