<svg width="20" height="20" viewBox="0 0 20 20" fill="none" xmlns="http://www.w3.org/2000/svg">
<path d="M4.43484 8.06927C6.44624 4.51015 7.45193 2.73059 8.83197 2.2725C9.59117 2.02049 10.409 2.02049 11.1682 2.2725C12.5482 2.73059 13.5539 4.51015 15.5653 8.06927C17.5767 11.6284 18.5824 13.4079 18.2807 14.858C18.1148 15.6557 17.7059 16.3792 17.1126 16.9249C16.0343 17.9168 14.0229 17.9168 10.0001 17.9168C5.97729 17.9168 3.96589 17.9168 2.88755 16.9249C2.29431 16.3792 1.88541 15.6557 1.71943 14.858C1.41774 13.4079 2.42344 11.6284 4.43484 8.06927Z" stroke="#FFC107" stroke-width="1.5"/>
<path d="M9.99349 13.3335H10.001" stroke="#FFC107" stroke-width="2" stroke-linecap="round" stroke-linejoin="round"/>
<path d="M10 10.8335L10 7.50016" stroke="#FFC107" stroke-width="1.5" stroke-linecap="round" stroke-linejoin="round"/>
</svg>
