<svg width="64" height="64" viewBox="0 0 64 64" fill="none" xmlns="http://www.w3.org/2000/svg">
<rect width="64" height="64" rx="32" fill="#F2F2F2"/>
<path d="M26 40C27.1046 40 28 40.8954 28 42C28 43.1046 27.1046 44 26 44C24.8954 44 24 43.1046 24 42C24 40.8954 24.8954 40 26 40Z" stroke="#90969F" stroke-width="1.5"/>
<path d="M38 40.0001C39.1046 40.0001 40 40.8955 40 42.0001C40 43.1047 39.1046 44.0001 38 44.0001C36.8954 44.0001 36 43.1047 36 42.0001C36 40.8955 36.8954 40.0001 38 40.0001Z" stroke="#90969F" stroke-width="1.5"/>
<path d="M19.0148 20.1224L19.2635 19.4149H19.2635L19.0148 20.1224ZM18.9153 19.2925C18.5245 19.1551 18.0963 19.3605 17.959 19.7512C17.8216 20.142 18.027 20.5702 18.4177 20.7075L18.9153 19.2925ZM22.1143 21.764L22.7335 21.3408V21.3408L22.1143 21.764ZM23.8501 35.4482L23.3059 35.9643H23.3059L23.8501 35.4482ZM43.5435 29.177L44.2781 29.3284L44.279 29.3238L43.5435 29.177ZM42.8772 32.41L43.6117 32.5614V32.5614L42.8772 32.41ZM43.6458 24.9294L43.0514 25.3867L43.6458 24.9294ZM41.5113 36.0672L41.0375 35.4858L41.5113 36.0672ZM23.3606 29.0133V25.3845H21.8606V29.0133H23.3606ZM19.2635 19.4149L18.9153 19.2925L18.4177 20.7075L18.766 20.83L19.2635 19.4149ZM30.5831 37.4167H37.6537V35.9167H30.5831V37.4167ZM23.3606 25.3845C23.3606 24.4361 23.3616 23.6651 23.2942 23.0423C23.225 22.4027 23.0775 21.8443 22.7335 21.3408L21.4951 22.1871C21.6474 22.41 21.7481 22.6971 21.8029 23.2038C21.8596 23.7272 21.8606 24.4034 21.8606 25.3845H23.3606ZM18.766 20.83C19.6506 21.141 20.252 21.3537 20.6988 21.573C21.126 21.7826 21.345 21.9675 21.4951 22.1871L22.7335 21.3408C22.3873 20.8342 21.9242 20.5034 21.3596 20.2263C20.8146 19.9589 20.1145 19.7141 19.2635 19.4149L18.766 20.83ZM21.8606 29.0133C21.8606 30.9561 21.8795 32.3295 22.0579 33.3713C22.2456 34.4671 22.6152 35.2358 23.3059 35.9643L24.3944 34.9322C23.9298 34.4422 23.6797 33.9545 23.5364 33.118C23.3839 32.2275 23.3606 30.9926 23.3606 29.0133H21.8606ZM30.5831 35.9167C28.7015 35.9167 27.3699 35.9149 26.3607 35.7718C25.3774 35.6324 24.8113 35.372 24.3944 34.9322L23.3059 35.9643C24.0441 36.7429 24.9853 37.0918 26.1501 37.2569C27.289 37.4184 28.7462 37.4167 30.5831 37.4167V35.9167ZM22.6106 24.91H38.7849V23.41H22.6106V24.91ZM42.809 29.0256L42.1426 32.2586L43.6117 32.5614L44.2781 29.3284L42.809 29.0256ZM38.7849 24.91C39.9221 24.91 40.9427 24.911 41.7526 25.0015C42.1557 25.0466 42.4715 25.1105 42.7039 25.1922C42.9423 25.276 43.0274 25.3555 43.0514 25.3867L44.2403 24.4721C43.9683 24.1186 43.5786 23.9097 43.2012 23.777C42.8177 23.6423 42.3765 23.5619 41.9192 23.5108C41.0083 23.409 39.8943 23.41 38.7849 23.41V24.91ZM44.279 29.3238C44.5061 28.1861 44.6932 27.2573 44.7388 26.5184C44.7854 25.7633 44.6961 25.0647 44.2403 24.4721L43.0514 25.3867C43.1875 25.5636 43.2785 25.8295 43.2416 26.426C43.2038 27.0389 43.0438 27.8492 42.808 29.0302L44.279 29.3238ZM37.6537 37.4167C38.6755 37.4167 39.5099 37.418 40.1782 37.3362C40.8671 37.2519 41.4667 37.0711 41.9851 36.6486L41.0375 35.4858C40.8204 35.6628 40.5318 35.7817 39.996 35.8473C39.4398 35.9154 38.7131 35.9167 37.6537 35.9167V37.4167ZM42.1426 32.2586C41.9288 33.2962 41.7808 34.0077 41.6018 34.5387C41.4295 35.0502 41.2547 35.3088 41.0375 35.4858L41.9851 36.6486C42.5036 36.2261 42.8017 35.6753 43.0233 35.0177C43.2383 34.3796 43.4055 33.5622 43.6117 32.5614L42.1426 32.2586Z" fill="#90969F"/>
</svg>
