<svg width="64" height="64" viewBox="0 0 64 64" fill="none" xmlns="http://www.w3.org/2000/svg">
<rect width="64" height="64" rx="32" fill="#F2F2F2"/>
<path d="M27.9488 41.2145L28.4131 40.6255L27.9488 41.2145ZM31.9998 23.3342L31.4595 23.8543C31.6009 24.0012 31.796 24.0842 31.9998 24.0842C32.2037 24.0842 32.3988 24.0012 32.5402 23.8543L31.9998 23.3342ZM36.0509 41.2145L36.5152 41.8035L36.0509 41.2145ZM28.4131 40.6255C26.4071 39.0441 24.1696 37.4681 22.3973 35.4724C20.6507 33.5056 19.4165 31.1907 19.4165 28.1828H17.9165C17.9165 31.6588 19.362 34.3134 21.2757 36.4684C23.1638 38.5944 25.5675 40.2923 27.4845 41.8035L28.4131 40.6255ZM19.4165 28.1828C19.4165 25.2214 21.0902 22.7251 23.395 21.6716C25.6526 20.6396 28.6515 20.9369 31.4595 23.8543L32.5402 22.8141C29.3484 19.4979 25.6806 18.9775 22.7715 20.3073C19.9096 21.6155 17.9165 24.6602 17.9165 28.1828H19.4165ZM27.4845 41.8035C28.1698 42.3437 28.8895 42.9067 29.6151 43.3307C30.3404 43.7545 31.1428 44.0833 31.9998 44.0833V42.5833C31.5236 42.5833 30.9926 42.3984 30.3719 42.0356C29.7513 41.673 29.1122 41.1766 28.4131 40.6255L27.4845 41.8035ZM36.5152 41.8035C38.4322 40.2923 40.8359 38.5944 42.724 36.4684C44.6377 34.3134 46.0832 31.6588 46.0832 28.1828H44.5832C44.5832 31.1907 43.349 33.5056 41.6024 35.4724C39.8301 37.4681 37.5926 39.0441 35.5865 40.6255L36.5152 41.8035ZM46.0832 28.1828C46.0832 24.6602 44.0901 21.6155 41.2282 20.3073C38.319 18.9775 34.6513 19.4979 31.4595 22.8141L32.5402 23.8543C35.3481 20.9369 38.3471 20.6396 40.6046 21.6716C42.9095 22.7251 44.5832 25.2214 44.5832 28.1828H46.0832ZM35.5865 40.6255C34.8875 41.1766 34.2484 41.673 33.6278 42.0356C33.007 42.3984 32.4761 42.5833 31.9998 42.5833V44.0833C32.8569 44.0833 33.6593 43.7545 34.3846 43.3307C35.1101 42.9067 35.8299 42.3437 36.5152 41.8035L35.5865 40.6255Z" fill="#90969F"/>
</svg>
