<svg width="64" height="64" viewBox="0 0 64 64" fill="none" xmlns="http://www.w3.org/2000/svg">
<rect width="64" height="64" rx="32" fill="#F2F2F2"/>
<path d="M41.3331 28.9382V27.9993C41.3331 22.8447 37.1544 18.666 31.9998 18.666C26.8451 18.666 22.6664 22.8447 22.6664 27.9993V28.9382C22.6664 30.0648 22.3329 31.1663 21.708 32.1037L20.1765 34.4009C18.7777 36.4992 19.8456 39.3512 22.2785 40.0148C28.6431 41.7506 35.3564 41.7506 41.721 40.0148C44.154 39.3512 45.2219 36.4992 43.823 34.4009L42.2915 32.1037C41.6666 31.1663 41.3331 30.0648 41.3331 28.9382Z" stroke="#90969F" stroke-width="1.5"/>
<path d="M26 41.334C26.8734 43.6644 29.2299 45.334 32 45.334C34.7701 45.334 37.1266 43.6644 38 41.334" stroke="#90969F" stroke-width="1.5" stroke-linecap="round"/>
</svg>
