<svg width="64" height="64" viewBox="0 0 64 64" fill="none" xmlns="http://www.w3.org/2000/svg">
<rect width="64" height="64" rx="32" fill="#F2F2F2"/>
<path d="M36.7701 20.5086L39.4368 21.908C42.3057 23.4136 43.7401 24.1663 44.5366 25.519C45.3332 26.8717 45.3332 28.5549 45.3332 31.9214V32.0773C45.3332 35.4438 45.3332 37.127 44.5366 38.4797C43.7401 39.8324 42.3057 40.5851 39.4368 42.0907L36.7701 43.4901C34.4293 44.7185 33.2589 45.3327 31.9998 45.3327C30.7408 45.3327 29.5704 44.7185 27.2296 43.4901L24.5629 42.0907C21.694 40.5851 20.2596 39.8324 19.463 38.4797C18.6665 37.127 18.6665 35.4438 18.6665 32.0773V31.9214C18.6665 28.5549 18.6665 26.8717 19.463 25.519C20.2596 24.1663 21.694 23.4136 24.5629 21.908L27.2296 20.5086C29.5704 19.2802 30.7408 18.666 31.9998 18.666C33.2589 18.666 34.4293 19.2802 36.7701 20.5086Z" stroke="#90969F" stroke-width="1.5" stroke-linecap="round"/>
<path d="M44 26L38.6667 28.6667M32 32L20 26M32 32V44.6667M32 32C32 32 35.6569 30.1716 38 29C38.2604 28.8698 38.6667 28.6667 38.6667 28.6667M38.6667 28.6667V33.3333M38.6667 28.6667L26 22" stroke="#90969F" stroke-width="1.5" stroke-linecap="round"/>
</svg>
