<svg width="24" height="24" viewBox="0 0 24 24" fill="none" xmlns="http://www.w3.org/2000/svg">
<path d="M16.5 19.2003C17.0133 18.7441 17.7868 18.7441 18.3 19.2003C18.6488 19.5103 19.2 19.2627 19.2 18.7962V5.20435C19.2 4.73776 18.6488 4.49021 18.3 4.80019C17.7868 5.25643 17.0133 5.25643 16.5 4.80019C15.9868 4.34395 15.2133 4.34395 14.7 4.80019C14.1868 5.25643 13.4133 5.25643 12.9 4.80019C12.3868 4.34395 11.6133 4.34395 11.1 4.80019C10.5868 5.25643 9.81332 5.25643 9.30005 4.80019C8.78678 4.34395 8.01332 4.34395 7.50005 4.80019C6.98678 5.25643 6.21332 5.25643 5.70005 4.80019C5.35132 4.49021 4.80005 4.73776 4.80005 5.20435V18.7962C4.80005 19.2627 5.35132 19.5103 5.70005 19.2003C6.21332 18.7441 6.98678 18.7441 7.50005 19.2003C8.01332 19.6566 8.78678 19.6566 9.30005 19.2003C9.81332 18.7441 10.5868 18.7441 11.1 19.2003C11.6133 19.6566 12.3868 19.6566 12.9 19.2003C13.4133 18.7441 14.1868 18.7441 14.7 19.2003C15.2133 19.6566 15.9868 19.6566 16.5 19.2003Z" stroke="#1E1E2A" stroke-width="1.5"/>
<path d="M8.3999 14.7998H15.5999" stroke="#1E1E2A" stroke-width="1.5" stroke-linecap="round"/>
<path d="M8.3999 12H15.5999" stroke="#1E1E2A" stroke-width="1.5" stroke-linecap="round"/>
<path d="M8.3999 9.2002H15.5999" stroke="#1E1E2A" stroke-width="1.5" stroke-linecap="round"/>
</svg>
