<svg width="20" height="20" viewBox="0 0 20 20" fill="none" xmlns="http://www.w3.org/2000/svg">
<path d="M3.33325 10.0003C3.33325 7.48617 3.33325 6.22909 4.1143 5.44804C4.89535 4.66699 6.15243 4.66699 8.66658 4.66699H11.3333C13.8474 4.66699 15.1045 4.66699 15.8855 5.44804C16.6666 6.22909 16.6666 7.48617 16.6666 10.0003C16.6666 12.5145 16.6666 13.7716 15.8855 14.5526C15.1045 15.3337 13.8474 15.3337 11.3333 15.3337H8.66658C6.15243 15.3337 4.89535 15.3337 4.1143 14.5526C3.33325 13.7716 3.33325 12.5145 3.33325 10.0003Z" stroke="#1E1E2A" stroke-width="1.5"/>
<path d="M8.66667 12.667H6" stroke="#1E1E2A" stroke-width="1.5" stroke-linecap="round"/>
<path d="M11.3333 12.667H10.3333" stroke="#1E1E2A" stroke-width="1.5" stroke-linecap="round"/>
<path d="M3.33325 8.66699L16.6666 8.66699" stroke="#1E1E2A" stroke-width="1.5" stroke-linecap="round"/>
</svg>
