<svg width="24" height="24" viewBox="0 0 24 24" fill="none" xmlns="http://www.w3.org/2000/svg">
<path d="M11.23 5.85372L11.7492 6.78406C12.2177 7.62365 12.0296 8.72504 11.2917 9.46302C11.2917 9.46302 11.2917 9.46302 11.2917 9.46302C11.2916 9.46314 10.3966 10.3583 12.0195 11.9812C13.6417 13.6034 14.5368 12.7098 14.5377 12.709C14.5377 12.709 14.5377 12.709 14.5377 12.709C15.2757 11.971 16.3771 11.7829 17.2166 12.2515L18.147 12.7707C19.4148 13.4782 19.5645 15.2562 18.4501 16.3705C17.7805 17.0401 16.9602 17.5612 16.0534 17.5955C14.5269 17.6534 11.9345 17.2671 9.33406 14.6666C6.7336 12.0662 6.34727 9.47376 6.40514 7.94725C6.43952 7.04046 6.96054 6.22017 7.63015 5.55057C8.74451 4.43621 10.5224 4.58593 11.23 5.85372Z" stroke="white" stroke-width="1.5" stroke-linecap="round"/>
</svg>
