<svg width="20" height="20" viewBox="0 0 20 20" fill="none" xmlns="http://www.w3.org/2000/svg">
<path d="M8.10227 5.60819C8.9467 4.09335 9.36892 3.33594 10.0002 3.33594C10.6314 3.33594 11.0536 4.09335 11.8981 5.60819L12.1165 6.00009C12.3565 6.43056 12.4765 6.64579 12.6635 6.78781C12.8506 6.92982 13.0836 6.98254 13.5496 7.08797L13.9738 7.18396C15.6136 7.55497 16.4335 7.74048 16.6285 8.36776C16.8236 8.99503 16.2647 9.64865 15.1468 10.9559L14.8575 11.2941C14.5399 11.6656 14.381 11.8513 14.3096 12.0811C14.2381 12.3109 14.2621 12.5587 14.3102 13.0543L14.3539 13.5055C14.5229 15.2497 14.6074 16.1217 14.0967 16.5094C13.586 16.8971 12.8184 16.5436 11.283 15.8367L10.8858 15.6538C10.4495 15.4529 10.2314 15.3525 10.0002 15.3525C9.76893 15.3525 9.55078 15.4529 9.11449 15.6538L8.71728 15.8367C7.18195 16.5436 6.41428 16.8971 5.90359 16.5094C5.39291 16.1217 5.47742 15.2497 5.64643 13.5055L5.69015 13.0543C5.73818 12.5587 5.76219 12.3109 5.69074 12.0811C5.61928 11.8513 5.46045 11.6656 5.14277 11.2941L4.85356 10.9559C3.73566 9.64865 3.17671 8.99503 3.37178 8.36776C3.56684 7.74048 4.38673 7.55497 6.02652 7.18396L6.45075 7.08797C6.91673 6.98254 7.14972 6.92982 7.33679 6.78781C7.52387 6.64579 7.64385 6.43056 7.88381 6.00009L8.10227 5.60819Z" fill="#FFE102" stroke="#FFE102" stroke-width="1.5"/>
</svg>
