<svg width="24" height="24" viewBox="0 0 24 24" fill="none" xmlns="http://www.w3.org/2000/svg">
<path d="M12 8.80078V12.0008L14 14.0008" stroke="#626C7A" stroke-width="1.5" stroke-linecap="round" stroke-linejoin="round"/>
<path d="M6.88336 6.88409L6.35303 6.35376L6.35303 6.35376L6.88336 6.88409ZM5.87026 7.8972L5.12027 7.90097C5.12233 8.31223 5.45522 8.64512 5.86649 8.64719L5.87026 7.8972ZM7.90293 8.65742C8.31714 8.6595 8.65461 8.32541 8.65669 7.9112C8.65877 7.49699 8.32468 7.15952 7.91047 7.15744L7.90293 8.65742ZM6.61001 5.85699C6.60793 5.44278 6.27046 5.10868 5.85625 5.11077C5.44205 5.11285 5.10795 5.45032 5.11003 5.86453L6.61001 5.85699ZM5.60994 11.0491C5.66619 10.6387 5.37912 10.2604 4.96874 10.2042C4.55837 10.1479 4.18009 10.435 4.12384 10.8454L5.60994 11.0491ZM17.5959 6.40493C14.4822 3.29121 9.44855 3.25825 6.35303 6.35376L7.41369 7.41442C9.9134 4.91472 13.9972 4.92758 16.5352 7.46559L17.5959 6.40493ZM6.4042 17.5966C9.51792 20.7104 14.5516 20.7433 17.6471 17.6478L16.5864 16.5871C14.0867 19.0868 10.0029 19.074 7.46486 16.536L6.4042 17.5966ZM17.6471 17.6478C20.7426 14.5523 20.7096 9.51866 17.5959 6.40493L16.5352 7.46559C19.0733 10.0036 19.0861 14.0874 16.5864 16.5871L17.6471 17.6478ZM6.35303 6.35376L5.33993 7.36687L6.40059 8.42753L7.41369 7.41442L6.35303 6.35376ZM5.86649 8.64719L7.90293 8.65742L7.91047 7.15744L5.87403 7.14721L5.86649 8.64719ZM6.62025 7.89343L6.61001 5.85699L5.11003 5.86453L5.12027 7.90097L6.62025 7.89343ZM4.12384 10.8454C3.79655 13.2332 4.55879 15.7512 6.4042 17.5966L7.46486 16.536C5.96273 15.0338 5.34411 12.9885 5.60994 11.0491L4.12384 10.8454Z" fill="#626C7A"/>
</svg>
