<svg width="24" height="24" viewBox="0 0 24 24" fill="none" xmlns="http://www.w3.org/2000/svg">
<circle cx="12.0001" cy="12.7984" r="2.4" stroke="#EB4C27" stroke-width="1.5"/>
<path d="M10.2222 19.2008H13.7778C16.2746 19.2008 17.523 19.2008 18.4198 18.6125C18.808 18.3578 19.1414 18.0305 19.4008 17.6493C20 16.7688 20 15.5431 20 13.0917C20 10.6403 20 9.41455 19.4008 8.53406C19.1414 8.15289 18.808 7.82562 18.4198 7.57092C17.8436 7.19289 17.1221 7.05776 16.0176 7.00947C15.4905 7.00947 15.0367 6.61733 14.9333 6.10987C14.7783 5.34869 14.0976 4.80078 13.3069 4.80078H10.6931C9.90244 4.80078 9.22172 5.34869 9.06667 6.10987C8.9633 6.61733 8.50948 7.00947 7.9824 7.00947C6.87787 7.05776 6.15644 7.19289 5.58019 7.57092C5.19196 7.82562 4.85863 8.15289 4.59922 8.53406C4 9.41455 4 10.6403 4 13.0917C4 15.5431 4 16.7688 4.59922 17.6493C4.85863 18.0305 5.19196 18.3578 5.58019 18.6125C6.47699 19.2008 7.7254 19.2008 10.2222 19.2008Z" stroke="#EB4C27" stroke-width="1.5"/>
<path d="M17.5998 10.3984H16.7998" stroke="#EB4C27" stroke-width="1.5" stroke-linecap="round"/>
</svg>
