<svg width="16" height="16" viewBox="0 0 16 16" fill="none" xmlns="http://www.w3.org/2000/svg">
<path d="M8.93996 8.00077L11.8066 5.14077C11.9322 5.01524 12.0027 4.84498 12.0027 4.66744C12.0027 4.48991 11.9322 4.31964 11.8066 4.19411C11.6811 4.06857 11.5108 3.99805 11.3333 3.99805C11.1558 3.99805 10.9855 4.06857 10.86 4.19411L7.99996 7.06077L5.13996 4.19411C5.01442 4.06857 4.84416 3.99805 4.66663 3.99805C4.48909 3.99805 4.31883 4.06857 4.19329 4.19411C4.06776 4.31964 3.99723 4.48991 3.99723 4.66744C3.99723 4.84498 4.06776 5.01524 4.19329 5.14077L7.05996 8.00077L4.19329 10.8608C4.13081 10.9227 4.08121 10.9965 4.04737 11.0777C4.01352 11.159 3.99609 11.2461 3.99609 11.3341C3.99609 11.4221 4.01352 11.5093 4.04737 11.5905C4.08121 11.6717 4.13081 11.7455 4.19329 11.8074C4.25527 11.8699 4.329 11.9195 4.41024 11.9534C4.49148 11.9872 4.57862 12.0046 4.66663 12.0046C4.75463 12.0046 4.84177 11.9872 4.92301 11.9534C5.00425 11.9195 5.07798 11.8699 5.13996 11.8074L7.99996 8.94077L10.86 11.8074C10.9219 11.8699 10.9957 11.9195 11.0769 11.9534C11.1581 11.9872 11.2453 12.0046 11.3333 12.0046C11.4213 12.0046 11.5084 11.9872 11.5897 11.9534C11.6709 11.9195 11.7446 11.8699 11.8066 11.8074C11.8691 11.7455 11.9187 11.6717 11.9526 11.5905C11.9864 11.5093 12.0038 11.4221 12.0038 11.3341C12.0038 11.2461 11.9864 11.159 11.9526 11.0777C11.9187 10.9965 11.8691 10.9227 11.8066 10.8608L8.93996 8.00077Z" fill="#ACACAC"/>
</svg>
