<svg width="44" height="24" viewBox="0 0 44 24" fill="none" xmlns="http://www.w3.org/2000/svg">
<g clip-path="url(#clip0_2242_18784)">
<path d="M4.69756 5.49131C4.69756 6.02905 4.17908 6.46504 3.53946 6.46504C2.89997 6.46504 2.38135 6.02905 2.38135 5.49131C2.38135 4.95358 2.89997 4.51758 3.53946 4.51758C4.17908 4.51758 4.69756 4.95358 4.69756 5.49131Z" fill="#FF4200"/>
<path d="M1.85406 7.93182L2.56472 6.89648C2.56472 6.89648 3.56481 7.62355 3.86761 7.87022C4.17027 8.11675 4.70996 8.53582 4.69672 9.21368C4.68348 9.89155 4.47293 10.4833 4.30181 10.8901C4.13084 11.2968 3.01217 13.4414 3.01217 13.4414L1.30127 12.443C1.30127 12.443 2.94668 11.0176 3.57805 10.1505C3.77551 9.87929 4.01225 9.16448 3.34116 8.79462C2.66993 8.42488 1.85406 7.93182 1.85406 7.93182Z" fill="#FF4200"/>
<path d="M4.05176 7.31642C4.05176 7.31642 4.98607 6.74948 5.90743 4.38281C6.17052 4.46908 7.49974 4.80188 7.49974 4.80188L7.0654 5.55375C7.0654 5.55375 9.05276 4.98681 10.7635 4.98681C10.7635 4.98681 11.698 4.94988 12.4219 5.17174C13.1456 5.39361 13.8828 5.84975 14.067 6.58921C14.2512 7.32868 14.4485 9.79401 14.0801 12.0248C14.0801 12.0248 14.0011 12.5427 13.4879 12.9987C12.9747 13.4547 12.3561 13.6765 11.2638 13.6765C10.1714 13.6765 9.59231 13.4793 9.59231 13.4793L9.8161 12.6164C9.8161 12.6164 10.4873 12.8507 11.0136 12.8507C11.5401 12.8507 11.9875 12.6412 12.2244 12.3824C12.2244 12.3824 12.4351 12.0865 12.4482 11.84C12.4613 11.5935 12.4746 6.86042 12.4219 6.70015C12.3692 6.53988 12.3034 5.93588 11.4874 5.78801C10.6716 5.64015 10.0267 5.73868 9.8292 5.77575C9.63189 5.81268 8.39477 6.09615 7.77621 6.33028C8.0131 6.40428 8.47378 6.51521 8.47378 6.51521C8.47378 6.51521 8.26323 6.92201 7.88156 7.31642C8.40801 7.30415 11.9085 7.31642 11.9085 7.31642V8.05601H9.65823V9.04201H11.8823V9.78162H9.65823V11.3469C9.65823 11.3469 10.0267 11.3469 10.5662 10.9525C10.5268 10.6813 10.5399 10.6443 10.4083 10.2499C10.7506 10.176 11.4349 9.95415 11.4349 9.95415L12.2903 11.9387L11.0136 12.4069L10.7768 11.6057C10.7768 11.6057 10.3952 12.0125 9.46077 12.2715C8.15974 12.6319 7.32892 12.6165 7.10513 12.6043C7.10513 12.6043 6.47347 12.6287 6.0918 12.4685C5.70999 12.3084 5.15734 11.9387 5.15734 10.8785C5.15734 10.5212 5.24945 10.2253 5.24945 10.2253L6.855 10.2376C6.855 10.2376 6.77613 10.7678 6.77613 10.9032C6.77613 11.0388 6.65754 11.6181 7.81565 11.6058C7.81565 10.8293 7.80255 9.76922 7.80255 9.76922L5.51267 9.75695V9.01735H7.78945V8.08055H7.21033C7.21033 8.08055 6.57867 8.63535 6.22334 8.96815L5.56535 8.42575C5.56535 8.42575 6.3247 7.68628 6.8419 6.61388C6.53924 6.72481 6.01279 6.94668 6.01279 6.94668C6.01279 6.94668 5.64421 7.39041 5.18368 7.84642C4.85468 7.67388 4.05176 7.31642 4.05176 7.31642Z" fill="#FF4200"/>
<path d="M17.923 6.67536L17.9099 7.37803H25.2929C25.2929 7.37803 26.0955 6.9219 26.0955 6.47816C26.0955 6.03443 25.4771 5.91123 25.0559 5.88657C24.6348 5.8619 23.4503 5.84963 22.4764 5.96056C21.5027 6.0715 19.2653 6.3179 17.923 6.67536ZM16.0937 8.3763V5.35656H17.8967V5.7387C17.8967 5.7387 20.4761 5.4059 20.7524 5.4059V4.54297H22.7923V5.1963C22.7923 5.1963 24.0952 5.08536 24.9507 5.08536C25.8061 5.08536 26.806 5.22083 27.1879 5.34416C27.5697 5.4675 28.0302 5.77563 28.0302 6.41657C28.0302 7.0575 27.5169 7.7231 26.4904 8.36403C26.1745 8.06817 25.9378 7.8587 25.9378 7.8587L25.9509 8.14216H22.8188V9.14057H26.4114V9.92937H22.8188V12.2836H27.7012V13.2574H16.0806V12.2836H20.713V9.95403H17.515V9.14057H20.7261V8.15443H17.923V8.3763H16.0937Z" fill="#FF4200"/>
<path d="M26.2543 11.1254C26.2543 11.6563 25.7417 12.0867 25.1095 12.0867C24.4772 12.0867 23.9646 11.6563 23.9646 11.1254C23.9646 10.5945 24.4772 10.1641 25.1095 10.1641C25.7417 10.1641 26.2543 10.5945 26.2543 11.1254Z" fill="#FF4200"/>
<path d="M33.0309 8.78364C32.5571 8.11804 31.8859 7.69897 31.8859 7.69897C31.8859 7.69897 32.2412 7.32911 32.4256 7.04564C32.8074 7.29217 33.2151 7.56337 33.6495 7.8591C34.031 7.25524 34.5311 6.19524 34.5311 6.19524C34.5311 6.19524 35.7684 6.77457 36.0053 6.8855C35.8868 7.24297 35.7813 7.36617 35.7813 7.36617C35.7813 7.36617 36.5578 7.84684 37.0317 8.13044C37.5712 7.16898 37.8081 6.04737 37.8081 6.04737L39.4269 6.97177C39.4269 6.97177 39.4269 6.40471 39.4006 6.17057C39.3744 5.34471 38.4136 5.24618 37.9002 5.25845C37.387 5.27071 36.2551 5.46791 34.9787 5.72685C33.7022 5.98564 31.6885 6.82378 31.6885 6.82378V9.96698C32.3991 9.56018 32.6756 9.23964 33.0309 8.78364ZM31.7017 10.2998V13.2457H29.675V5.03658H31.6885V5.75151C31.6885 5.75151 33.6495 5.04898 34.9787 4.79005C36.3079 4.53125 37.0711 4.53125 37.387 4.53125C37.7028 4.53125 39.0058 4.66685 39.7427 4.92565C40.4797 5.18445 41.0061 5.70218 41.2167 6.25685C41.4272 6.81151 41.4403 8.32751 41.4403 9.03018C41.4403 9.73272 41.3878 11.8896 41.3088 12.3087C41.2299 12.7279 41.0454 13.2086 40.6506 13.4798C40.256 13.751 39.69 13.6892 39.1768 13.5907C38.6634 13.492 38.0581 13.2826 37.5449 13.0238V12.2102C37.5449 12.2102 38.0449 12.543 38.545 12.543C39.0452 12.543 39.4401 12.2595 39.4401 11.6308C39.4401 11.0023 39.5056 8.30298 39.4531 7.19364C39.1242 7.68657 38.4398 8.56164 38.1371 8.88217C38.545 9.15337 39.0321 9.57257 39.3215 9.89297C38.9399 10.2134 37.9135 11.0023 37.9135 11.0023C37.9135 11.0023 37.308 10.1394 37.1632 9.97924C37.0053 10.1518 36.0314 11.1624 34.5049 12.0006C34.2417 11.6432 33.8731 11.1995 33.8731 11.1995C33.8731 11.1995 35.0181 10.8298 36.4131 9.09177C36.1104 8.79591 35.663 8.25351 35.2682 8.00711C35.1102 8.21671 34.6495 8.67271 34.6495 8.67271C34.6495 8.67271 35.0708 8.96844 35.3734 9.48617C35.1102 9.73271 34.2943 10.5216 34.2943 10.5216L33.6362 9.57257C33.6362 9.57257 32.9124 10.2874 32.2412 10.7434C31.9124 10.4476 31.7017 10.2998 31.7017 10.2998Z" fill="#FF4200"/>
<path d="M2.17041 16.0458C2.17041 16.0458 2.36644 15.3759 3.13391 15.4028C3.90124 15.4298 4.46655 15.4676 4.91086 15.4676C5.35503 15.4676 6.36465 15.3759 6.47427 15.3379C6.42231 15.5378 6.18015 15.9215 5.8224 15.9215H5.00881C5.00881 15.9215 4.81847 15.9162 4.81847 16.1376V18.7799C4.81847 18.7799 4.87043 19.142 5.24541 19.0555C5.12426 19.3635 4.81263 19.5419 4.44919 19.5419C4.08588 19.5419 3.72813 19.3256 3.72813 19.0284V16.0944C3.72813 15.9431 3.70507 15.9052 3.4165 15.8944C3.24353 15.8879 2.90998 15.8727 2.62042 15.9052C2.4335 15.9262 2.28587 15.9907 2.17041 16.0458Z" fill="#FF4200"/>
<path d="M7.6225 17.629C7.2592 17.629 6.96479 17.9532 6.96479 18.3531C6.96479 18.753 7.2592 19.0771 7.6225 19.0771C7.98581 19.0771 8.28021 18.753 8.28021 18.3531C8.28021 17.9532 7.98581 17.629 7.6225 17.629ZM6.24943 16.7428C6.2836 16.6312 6.34752 16.4403 6.60135 16.3051C6.88265 16.1552 7.29934 16.1484 7.44939 16.1484C7.59944 16.1484 8.07265 16.1756 8.21672 16.2134C8.36093 16.2511 9.18591 16.3702 9.18591 17.2184V18.8178C9.18591 18.8178 9.22065 19.1528 9.5841 19.0447C9.53214 19.3743 9.18591 19.5419 8.93792 19.5419C8.68979 19.5419 8.28605 19.4012 8.28605 19.115C8.28605 19.115 8.12433 19.5958 7.25905 19.5904C6.39364 19.5851 5.92627 19.0987 5.92627 18.3747C5.92627 17.6506 6.48589 17.1482 7.31102 17.1482C7.58791 17.1482 8.07834 17.2508 8.28605 17.5588C8.2879 17.1807 8.2133 16.666 7.59261 16.612C7.27386 16.593 6.63623 16.6058 6.24943 16.7428Z" fill="#FF4200"/>
<path d="M20.1503 17.629C19.787 17.629 19.4926 17.9532 19.4926 18.3531C19.4926 18.753 19.787 19.0771 20.1503 19.0771C20.5136 19.0771 20.808 18.753 20.808 18.3531C20.808 17.9532 20.5136 17.629 20.1503 17.629ZM18.7773 16.7428C18.8114 16.6312 18.8753 16.4403 19.1292 16.3051C19.4105 16.1552 19.8272 16.1484 19.9772 16.1484C20.1273 16.1484 20.6005 16.1756 20.7445 16.2134C20.8888 16.2511 21.7137 16.3702 21.7137 17.2184V18.8178C21.7137 18.8178 21.7485 19.1528 22.1118 19.0447C22.06 19.3743 21.7137 19.5419 21.4658 19.5419C21.2176 19.5419 20.8139 19.4012 20.8139 19.115C20.8139 19.115 20.6522 19.5958 19.7869 19.5904C18.9215 19.5851 18.4541 19.0987 18.4541 18.3747C18.4541 17.6506 19.0137 17.1482 19.8388 17.1482C20.1157 17.1482 20.6062 17.2508 20.8139 17.5588C20.8157 17.1807 20.7411 16.666 20.1204 16.612C19.8017 16.593 19.1641 16.6058 18.7773 16.7428Z" fill="#FF4200"/>
<path d="M11.7534 16.6605C11.3615 16.6605 11.0439 17.2047 11.0439 17.8762C11.0439 18.5477 11.3615 19.0919 11.7534 19.0919C12.1453 19.0919 12.4629 18.5477 12.4629 17.8762C12.4629 17.2047 12.1453 16.6605 11.7534 16.6605ZM13.5534 17.8762C13.5534 18.8402 12.7475 19.6215 11.7534 19.6215C10.7593 19.6215 9.95337 18.8402 9.95337 17.8762C9.95337 16.9123 10.7593 16.1309 11.7534 16.1309C12.7475 16.1309 13.5534 16.9123 13.5534 17.8762Z" fill="#FF4200"/>
<path d="M24.2456 16.6605C23.8536 16.6605 23.536 17.2047 23.536 17.8762C23.536 18.5477 23.8536 19.0919 24.2456 19.0919C24.6375 19.0919 24.9551 18.5477 24.9551 17.8762C24.9551 17.2047 24.6375 16.6605 24.2456 16.6605ZM26.0456 17.8762C26.0456 18.8402 25.2397 19.6215 24.2456 19.6215C23.2515 19.6215 22.4456 18.8402 22.4456 17.8762C22.4456 16.9123 23.2515 16.1309 24.2456 16.1309C25.2397 16.1309 26.0456 16.9123 26.0456 17.8762Z" fill="#FF4200"/>
<path d="M33.499 16.6605C33.1071 16.6605 32.7895 17.2047 32.7895 17.8762C32.7895 18.5477 33.1071 19.0919 33.499 19.0919C33.8909 19.0919 34.2085 18.5477 34.2085 17.8762C34.2085 17.2047 33.8909 16.6605 33.499 16.6605ZM35.299 17.8762C35.299 18.8402 34.4931 19.6215 33.499 19.6215C32.5049 19.6215 31.699 18.8402 31.699 17.8762C31.699 16.9123 32.5049 16.1309 33.499 16.1309C34.4931 16.1309 35.299 16.9123 35.299 17.8762Z" fill="#FF4200"/>
<path d="M15.2965 17.1898C15.1886 17.4995 15.2461 18.3483 15.2965 18.5101C15.3469 18.6718 15.5338 19.0759 16.0157 19.0759C16.4976 19.0759 16.663 18.6314 16.6989 18.4831C16.7349 18.335 16.8068 17.9442 16.6774 17.2706C16.548 16.5971 16.0013 16.651 16.0013 16.651C15.6057 16.6578 15.4044 16.8801 15.2965 17.1898ZM13.8508 15.4789C13.8508 15.4789 13.9227 14.9805 14.5342 14.9805C15.1455 14.9805 15.2678 15.3442 15.2678 15.4385V16.5566C15.2678 16.5566 15.5267 16.1929 16.3178 16.1929C17.1089 16.1929 17.8352 16.7185 17.8352 17.7086C17.8352 17.7086 18.0008 19.5609 16.2747 19.5609C15.7136 19.5609 15.39 19.3858 15.2246 19.1298C15.1167 19.3926 14.8649 19.5407 14.5629 19.5407C14.2608 19.5407 13.9012 19.3657 13.9012 19.049C14.0306 19.0625 14.2752 19.0557 14.2752 18.7593V15.7147C14.2752 15.7147 14.2465 15.4789 13.8508 15.4789Z" fill="#FF4200"/>
<path d="M27.5156 19.1092C27.5156 19.3659 27.2902 19.5739 27.0122 19.5739C26.7341 19.5739 26.5088 19.3659 26.5088 19.1092C26.5088 18.8525 26.7341 18.6445 27.0122 18.6445C27.2902 18.6445 27.5156 18.8525 27.5156 19.1092Z" fill="#FF4200"/>
<path d="M31.1908 19.063C31.1908 19.063 31.011 18.8813 30.8456 18.888C30.6802 18.8945 30.5941 18.9485 30.5004 18.9822C30.4069 19.0158 30.2054 19.0832 30.0256 19.0832C29.8459 19.0832 29.5151 19.0158 29.2705 18.6656C29.0235 18.3117 29.0258 17.6214 29.1051 17.3318C29.1843 17.0421 29.3712 16.8198 29.5869 16.692C29.8027 16.5641 30.2127 16.6112 30.3566 16.7189C30.5004 16.8266 30.565 17.0286 30.8312 17.0286C31.0973 17.0286 31.2482 16.7324 31.2052 16.5302C31.2052 16.5302 30.7737 16.2005 29.882 16.1934C29.0476 16.1868 28.573 16.611 28.4219 16.7794C28.2707 16.9478 27.9832 17.352 27.9832 17.8909C27.9832 18.4298 28.2709 18.9754 28.6161 19.2246C28.959 19.4722 29.4647 19.5952 29.8387 19.5952C30.2127 19.5952 30.7881 19.474 31.1908 19.063Z" fill="#FF4200"/>
<path d="M35.6357 16.7049C35.6357 16.7049 35.7149 16.1997 36.3333 16.1997C36.844 16.1997 36.9806 16.5568 36.9806 16.5568C36.9806 16.5568 37.2972 16.166 37.9588 16.166C38.6205 16.166 38.9227 16.4624 39.0449 16.6173C39.2605 16.422 39.4836 16.1728 40.0877 16.1728C40.6918 16.1728 41.2025 16.3683 41.26 16.934C41.3175 17.4997 41.296 18.8873 41.296 18.8873C41.296 18.8873 41.3461 19.1568 41.6627 19.0423C41.6915 19.3455 41.3534 19.5408 41.0154 19.5408C40.6775 19.5408 40.3394 19.3523 40.3394 18.9548V17.062C40.3394 17.062 40.3468 16.6241 39.7928 16.6241C39.239 16.6241 39.1814 17.1023 39.1814 17.2505V19.5205H38.1961V17.0687C38.1961 17.0687 38.189 16.6173 37.6783 16.6173C37.1677 16.6173 37.031 17.0148 37.031 17.2101V19.5004H36.053V16.9879C36.053 16.9879 36.0745 16.7117 35.6357 16.7049Z" fill="#FF4200"/>
</g>
<defs>
<clipPath id="clip0_2242_18784">
<rect width="41" height="16" fill="white" transform="translate(1 4)"/>
</clipPath>
</defs>
</svg>
