<svg width="110" height="60" viewBox="0 0 110 60" fill="none" xmlns="http://www.w3.org/2000/svg">
<path d="M11.7437 13.7234C11.7437 15.0677 10.4475 16.1577 8.84839 16.1577C7.24968 16.1577 5.95312 15.0677 5.95312 13.7234C5.95312 12.3791 7.24968 11.2891 8.84839 11.2891C10.4475 11.2891 11.7437 12.3791 11.7437 13.7234Z" fill="#EB4C27"/>
<path d="M4.6349 19.8305L6.41157 17.2422C6.41157 17.2422 8.91178 19.0599 9.66879 19.6765C10.4254 20.2929 11.7747 21.3405 11.7416 23.0352C11.7085 24.7299 11.1821 26.2092 10.7543 27.2262C10.3269 28.2429 7.53017 33.6045 7.53017 33.6045L3.25293 31.1085C3.25293 31.1085 7.36645 27.5449 8.94488 25.3772C9.43852 24.6992 10.0304 22.9122 8.35266 21.9875C6.67458 21.0632 4.6349 19.8305 4.6349 19.8305Z" fill="#EB4C27"/>
<path d="M10.1294 18.2871C10.1294 18.2871 12.4652 16.8698 14.7686 10.9531C15.4263 11.1688 18.7494 12.0008 18.7494 12.0008L17.6635 13.8805C17.6635 13.8805 22.6319 12.4631 26.9088 12.4631C26.9088 12.4631 29.2449 12.3708 31.0547 12.9255C32.8641 13.4801 34.707 14.6205 35.1675 16.4691C35.628 18.3178 36.1213 24.4811 35.2003 30.0581C35.2003 30.0581 35.0027 31.3528 33.7197 32.4928C32.4367 33.6328 30.8903 34.1875 28.1594 34.1875C25.4286 34.1875 23.9808 33.6945 23.9808 33.6945L24.5403 31.5371C24.5403 31.5371 26.2183 32.1228 27.5341 32.1228C28.8502 32.1228 29.9688 31.5991 30.5611 30.9521C30.5611 30.9521 31.0878 30.2125 31.1206 29.5961C31.1533 28.9798 31.1864 17.1471 31.0547 16.7465C30.923 16.3458 30.7586 14.8358 28.7186 14.4661C26.6789 14.0965 25.0666 14.3428 24.573 14.4355C24.0797 14.5278 20.9869 15.2365 19.4405 15.8218C20.0328 16.0068 21.1845 16.2841 21.1845 16.2841C21.1845 16.2841 20.6581 17.3011 19.7039 18.2871C21.02 18.2565 29.7713 18.2871 29.7713 18.2871V20.1361H24.1456V22.6011H29.7058V24.4501H24.1456V28.3635C24.1456 28.3635 25.0666 28.3635 26.4155 27.3775C26.3169 26.6995 26.3497 26.6068 26.0208 25.6208C26.8764 25.4361 28.5872 24.8815 28.5872 24.8815L30.7259 29.8428L27.5341 31.0135L26.9419 29.0105C26.9419 29.0105 25.9881 30.0275 23.6519 30.6748C20.3993 31.5758 18.3223 31.5375 17.7628 31.5068C17.7628 31.5068 16.1837 31.5678 15.2295 31.1675C14.275 30.7671 12.8934 29.8428 12.8934 27.1925C12.8934 26.2991 13.1236 25.5595 13.1236 25.5595L17.1375 25.5901C17.1375 25.5901 16.9403 26.9155 16.9403 27.2541C16.9403 27.5931 16.6439 29.0415 19.5391 29.0105C19.5391 27.0695 19.5064 24.4191 19.5064 24.4191L13.7817 24.3885V22.5395H19.4736V20.1975H18.0258C18.0258 20.1975 16.4467 21.5845 15.5583 22.4165L13.9134 21.0605C13.9134 21.0605 15.8118 19.2118 17.1047 16.5308C16.3481 16.8081 15.032 17.3628 15.032 17.3628C15.032 17.3628 14.1105 18.4721 12.9592 19.6121C12.1367 19.1808 10.1294 18.2871 10.1294 18.2871Z" fill="#EB4C27"/>
<path d="M44.8073 16.6826L44.7745 18.4392H63.232C63.232 18.4392 65.2386 17.2989 65.2386 16.1895C65.2386 15.0802 63.6925 14.7722 62.6394 14.7106C61.5866 14.6489 58.6255 14.6182 56.1908 14.8956C53.7564 15.1729 48.1631 15.7889 44.8073 16.6826ZM40.2339 20.9349V13.3856H44.7414V14.3409C44.7414 14.3409 51.19 13.5089 51.8808 13.5089V11.3516H56.9805V12.9849C56.9805 12.9849 60.2378 12.7075 62.3764 12.7075C64.515 12.7075 67.0149 13.0462 67.9694 13.3545C68.9239 13.6629 70.0753 14.4332 70.0753 16.0356C70.0753 17.6379 68.7919 19.3019 66.2258 20.9042C65.4361 20.1646 64.8442 19.6409 64.8442 19.6409L64.877 20.3496H57.0468V22.8456H66.0283V24.8176H57.0468V30.7032H69.2528V33.1376H40.2012V30.7032H51.7823V24.8792H43.7873V22.8456H51.815V20.3802H44.8073V20.9349H40.2339Z" fill="#EB4C27"/>
<path d="M65.6355 27.8096C65.6355 29.1369 64.3539 30.2129 62.7733 30.2129C61.1927 30.2129 59.9111 29.1369 59.9111 27.8096C59.9111 26.4823 61.1927 25.4062 62.7733 25.4062C64.3539 25.4062 65.6355 26.4823 65.6355 27.8096Z" fill="#EB4C27"/>
<path d="M82.5772 21.9513C81.3927 20.2873 79.7147 19.2396 79.7147 19.2396C79.7147 19.2396 80.603 18.315 81.0639 17.6063C82.0184 18.2226 83.0377 18.9006 84.1236 19.6399C85.0774 18.1303 86.3277 15.4803 86.3277 15.4803C86.3277 15.4803 89.4208 16.9286 90.0131 17.206C89.7169 18.0996 89.4532 18.4076 89.4532 18.4076C89.4532 18.4076 91.3943 19.6093 92.5791 20.3183C93.928 17.9146 94.5202 15.1106 94.5202 15.1106L98.5672 17.4216C98.5672 17.4216 98.5672 16.004 98.5014 15.4186C98.4359 13.354 96.0339 13.1076 94.7505 13.1383C93.4674 13.169 90.6376 13.662 87.4466 14.3093C84.2553 14.9563 79.221 17.0516 79.221 17.0516V24.9096C80.9977 23.8926 81.6888 23.0913 82.5772 21.9513ZM79.2541 25.7416V33.1063H74.1875V12.5836H79.221V14.371C79.221 14.371 84.1236 12.6146 87.4467 11.9673C90.7697 11.3203 92.6777 11.3203 93.4675 11.3203C94.2569 11.3203 97.5145 11.6593 99.3566 12.3063C101.199 12.9533 102.515 14.2476 103.042 15.6343C103.568 17.021 103.601 20.811 103.601 22.5676C103.601 24.324 103.469 29.7163 103.272 30.764C103.075 31.812 102.613 33.0136 101.626 33.6916C100.64 34.3696 99.2248 34.2153 97.9418 33.969C96.6584 33.7223 95.1451 33.1986 93.8621 32.5516V30.5176C93.8621 30.5176 95.112 31.3496 96.3623 31.3496C97.613 31.3496 98.6002 30.641 98.6002 29.0693C98.6002 27.498 98.7639 20.7496 98.6326 17.9763C97.8105 19.2086 96.0993 21.3963 95.3426 22.1976C96.3623 22.8756 97.5802 23.9236 98.3037 24.7246C97.3496 25.5256 94.7835 27.498 94.7835 27.498C94.7835 27.498 93.2699 25.3406 92.9079 24.9403C92.5132 25.3716 90.0785 27.8983 86.2621 29.9936C85.6041 29.1003 84.6826 27.991 84.6826 27.991C84.6826 27.991 87.5452 27.0666 91.0326 22.7216C90.276 21.982 89.1574 20.626 88.1705 20.01C87.7754 20.534 86.6237 21.674 86.6237 21.674C86.6237 21.674 87.6768 22.4133 88.4335 23.7076C87.7754 24.324 85.7357 26.2963 85.7357 26.2963L84.0904 23.9236C84.0904 23.9236 82.281 25.7106 80.6029 26.8506C79.7808 26.1113 79.2541 25.7416 79.2541 25.7416Z" fill="#EB4C27"/>
<path d="M5.42578 40.1056C5.42578 40.1056 5.91586 38.4309 7.83453 38.4983C9.75285 38.5656 11.1661 38.6603 12.2769 38.6603C13.3873 38.6603 15.9114 38.4309 16.1854 38.3359C16.0555 38.8356 15.4501 39.7949 14.5558 39.7949H12.5218C12.5218 39.7949 12.0459 39.7816 12.0459 40.3353V46.9409C12.0459 46.9409 12.1758 47.8463 13.1133 47.6299C12.8104 48.3999 12.0313 48.8459 11.1227 48.8459C10.2145 48.8459 9.32008 48.3053 9.32008 47.5623V40.2273C9.32008 39.8489 9.26242 39.7543 8.541 39.7273C8.10858 39.7109 7.2747 39.6729 6.5508 39.7543C6.0835 39.8066 5.71442 39.9679 5.42578 40.1056Z" fill="#EB4C27"/>
<path d="M19.056 44.0685C18.1478 44.0685 17.4117 44.8792 17.4117 45.8788C17.4117 46.8785 18.1478 47.6889 19.056 47.6889C19.9643 47.6889 20.7003 46.8785 20.7003 45.8788C20.7003 44.8792 19.9643 44.0685 19.056 44.0685ZM15.6233 41.8532C15.7088 41.5742 15.8685 41.0969 16.5031 40.7588C17.2064 40.3842 18.2481 40.3672 18.6232 40.3672C18.9984 40.3672 20.1814 40.4352 20.5416 40.5295C20.9021 40.6239 22.9645 40.9215 22.9645 43.0422V47.0405C22.9645 47.0405 23.0514 47.8782 23.96 47.6079C23.8301 48.4319 22.9645 48.8509 22.3446 48.8509C21.7242 48.8509 20.7149 48.4992 20.7149 47.7835C20.7149 47.7835 20.3106 48.9855 18.1474 48.9722C15.9839 48.9589 14.8154 47.7429 14.8154 45.9329C14.8154 44.1225 16.2145 42.8665 18.2773 42.8665C18.9695 42.8665 20.1956 43.1232 20.7149 43.8932C20.7195 42.9479 20.533 41.6612 18.9813 41.5262C18.1844 41.4785 16.5903 41.5105 15.6233 41.8532Z" fill="#EB4C27"/>
<path d="M50.3753 44.0685C49.4671 44.0685 48.7311 44.8792 48.7311 45.8788C48.7311 46.8785 49.4671 47.6889 50.3753 47.6889C51.2836 47.6889 52.0196 46.8785 52.0196 45.8788C52.0196 44.8792 51.2836 44.0685 50.3753 44.0685ZM46.9427 41.8532C47.0281 41.5742 47.1879 41.0969 47.8224 40.7588C48.5257 40.3842 49.5674 40.3672 49.9426 40.3672C50.3177 40.3672 51.5007 40.4352 51.8609 40.5295C52.2214 40.6239 54.2839 40.9215 54.2839 43.0422V47.0405C54.2839 47.0405 54.3707 47.8782 55.279 47.6079C55.1494 48.4319 54.2839 48.8509 53.6639 48.8509C53.0436 48.8509 52.0342 48.4992 52.0342 47.7835C52.0342 47.7835 51.6299 48.9855 49.4667 48.9722C47.3032 48.9589 46.1348 47.7429 46.1348 45.9329C46.1348 44.1225 47.5338 42.8665 49.5966 42.8665C50.2889 42.8665 51.5149 43.1232 52.0342 43.8932C52.0388 42.9479 51.8523 41.6612 50.3006 41.5262C49.5037 41.4785 47.9097 41.5105 46.9427 41.8532Z" fill="#EB4C27"/>
<path d="M29.3833 41.6521C28.4035 41.6521 27.6095 43.0128 27.6095 44.6914C27.6095 46.3701 28.4035 47.7308 29.3833 47.7308C30.3631 47.7308 31.1572 46.3701 31.1572 44.6914C31.1572 43.0128 30.3631 41.6521 29.3833 41.6521ZM33.8834 44.6914C33.8834 47.1014 31.8686 49.0548 29.3833 49.0548C26.8981 49.0548 24.8833 47.1014 24.8833 44.6914C24.8833 42.2818 26.8981 40.3281 29.3833 40.3281C31.8686 40.3281 33.8834 42.2818 33.8834 44.6914Z" fill="#EB4C27"/>
<path d="M60.6138 41.6521C59.634 41.6521 58.84 43.0128 58.84 44.6914C58.84 46.3701 59.634 47.7308 60.6138 47.7308C61.5936 47.7308 62.3876 46.3701 62.3876 44.6914C62.3876 43.0128 61.5936 41.6521 60.6138 41.6521ZM65.1138 44.6914C65.1138 47.1014 63.0991 49.0548 60.6138 49.0548C58.1285 49.0548 56.1138 47.1014 56.1138 44.6914C56.1138 42.2818 58.1285 40.3281 60.6138 40.3281C63.0991 40.3281 65.1138 42.2818 65.1138 44.6914Z" fill="#EB4C27"/>
<path d="M83.7476 41.6521C82.7678 41.6521 81.9738 43.0128 81.9738 44.6914C81.9738 46.3701 82.7678 47.7308 83.7476 47.7308C84.7274 47.7308 85.5214 46.3701 85.5214 44.6914C85.5214 43.0128 84.7274 41.6521 83.7476 41.6521ZM88.2476 44.6914C88.2476 47.1014 86.2329 49.0548 83.7476 49.0548C81.2623 49.0548 79.2476 47.1014 79.2476 44.6914C79.2476 42.2818 81.2623 40.3281 83.7476 40.3281C86.2329 40.3281 88.2476 42.2818 88.2476 44.6914Z" fill="#EB4C27"/>
<path d="M38.2411 42.9686C37.9714 43.743 38.1151 45.865 38.2411 46.2693C38.3671 46.6737 38.8344 47.684 40.0392 47.684C41.2439 47.684 41.6574 46.5726 41.7471 46.202C41.8372 45.8316 42.0169 44.8546 41.6934 43.1706C41.3699 41.487 40.0032 41.6216 40.0032 41.6216C39.0142 41.6386 38.5109 42.1943 38.2411 42.9686ZM34.627 38.6913C34.627 38.6913 34.8067 37.4453 36.3353 37.4453C37.8635 37.4453 38.1693 38.3546 38.1693 38.5903V41.3856C38.1693 41.3856 38.8166 40.4763 40.7944 40.4763C42.7722 40.4763 44.588 41.7903 44.588 44.2656C44.588 44.2656 45.0019 48.8963 40.6866 48.8963C39.2839 48.8963 38.475 48.4586 38.0614 47.8187C37.7916 48.4756 37.1621 48.846 36.4072 48.846C35.652 48.846 34.753 48.4083 34.753 47.6166C35.0765 47.6503 35.6879 47.6333 35.6879 46.8923V39.281C35.6879 39.281 35.616 38.6913 34.627 38.6913Z" fill="#EB4C27"/>
<path d="M68.7884 47.771C68.7884 48.4127 68.225 48.9327 67.53 48.9327C66.8349 48.9327 66.2715 48.4127 66.2715 47.771C66.2715 47.1294 66.8349 46.6094 67.53 46.6094C68.225 46.6094 68.7884 47.1294 68.7884 47.771Z" fill="#EB4C27"/>
<path d="M77.9767 47.6508C77.9767 47.6508 77.5272 47.1964 77.1137 47.2131C76.7001 47.2294 76.4848 47.3644 76.2506 47.4488C76.0168 47.5328 75.5132 47.7011 75.0637 47.7011C74.6145 47.7011 73.7874 47.5328 73.176 46.6571C72.5585 45.7724 72.5642 44.0468 72.7624 43.3228C72.9603 42.5984 73.4276 42.0428 73.9668 41.7231C74.5063 41.4034 75.5313 41.5211 75.8911 41.7904C76.2506 42.0598 76.4122 42.5648 77.0777 42.5648C77.7429 42.5648 78.1202 41.8241 78.0127 41.3188C78.0127 41.3188 76.9339 40.4944 74.7046 40.4768C72.6186 40.4601 71.432 41.5208 71.0544 41.9418C70.6764 42.3628 69.9575 43.3731 69.9575 44.7204C69.9575 46.0678 70.6768 47.4318 71.5399 48.0548C72.3972 48.6738 73.6614 48.9811 74.5964 48.9811C75.5313 48.9811 76.9699 48.6781 77.9767 47.6508Z" fill="#EB4C27"/>
<path d="M89.0889 41.7614C89.0889 41.7614 89.2868 40.4984 90.8328 40.4984C92.1094 40.4984 92.4511 41.3911 92.4511 41.3911C92.4511 41.3911 93.2426 40.4141 94.8965 40.4141C96.5507 40.4141 97.3063 41.1551 97.6117 41.5424C98.1509 41.0541 98.7086 40.4311 100.219 40.4311C101.729 40.4311 103.006 40.9197 103.15 42.3341C103.293 43.7484 103.24 47.2174 103.24 47.2174C103.24 47.2174 103.365 47.8911 104.156 47.6047C104.228 48.3627 103.383 48.8511 102.538 48.8511C101.693 48.8511 100.848 48.3797 100.848 47.3861V42.6541C100.848 42.6541 100.866 41.5594 99.4816 41.5594C98.0971 41.5594 97.953 42.7547 97.953 43.1254V48.8004H95.4898V42.6707C95.4898 42.6707 95.472 41.5424 94.1954 41.5424C92.9187 41.5424 92.5771 42.5361 92.5771 43.0244V48.7501H90.132V42.4687C90.132 42.4687 90.1858 41.7784 89.0889 41.7614Z" fill="#EB4C27"/>
</svg>
