<svg width="44" height="24" viewBox="0 0 44 24" fill="none" xmlns="http://www.w3.org/2000/svg">
<path d="M15.3029 15.0487H10.7745C10.9823 15.8604 11.6717 16.4737 12.5689 16.4737C13.0741 16.4737 13.5699 16.2663 13.9005 15.9101L14.996 15.9326C14.5143 16.8074 13.5935 17.3666 12.5264 17.3666C10.9681 17.3666 9.7451 16.0768 9.7451 14.6159C9.7451 13.1097 10.9492 11.8742 12.55 11.8742C14.0988 11.8742 15.336 13.0917 15.336 14.5618C15.3312 14.7196 15.3218 14.891 15.3029 15.0487ZM12.5358 12.767C11.6481 12.767 10.8265 13.4344 10.7698 14.2957H14.3019C14.2452 13.4389 13.4283 12.767 12.5358 12.767ZM19.8408 17.2358V14.3994C19.8408 13.5155 19.5622 12.767 18.4761 12.767C17.4704 12.767 17.0359 13.5111 17.0359 14.3904V17.2358H16.0113V12.0139H16.9699V12.5686H16.9887C17.3854 12.068 17.9567 11.8696 18.5895 11.8696C19.3686 11.8696 20.1005 12.1627 20.5255 12.8031C20.7899 13.1999 20.8702 13.6778 20.8702 14.1423V17.2358H19.8408ZM26.324 17.2358V16.4918H26.3052C25.8518 17.096 25.1294 17.3666 24.3691 17.3666C22.7306 17.3666 21.5264 16.1986 21.5264 14.6429C21.5264 13.0781 22.7116 11.8696 24.3691 11.8696C25.0586 11.8696 25.7904 12.1222 26.2249 12.6497H26.2437V10.2598H27.2685V17.2358H26.324ZM24.4258 12.767C23.3397 12.767 22.5512 13.6148 22.5512 14.6339C22.5512 15.6124 23.3728 16.4737 24.4163 16.4737C25.4835 16.4737 26.3193 15.644 26.3193 14.6339C26.324 13.5877 25.5449 12.767 24.4258 12.767ZM30.2386 18.981H29.1761L29.9741 17.1321L27.7926 12.014H28.8975L30.5077 16.0679L32.1557 12.014H33.2606L30.2386 18.981ZM36.1836 17.3666C34.5734 17.3666 33.2323 16.131 33.2323 14.5843C33.2323 13.0466 34.6065 11.8696 36.1836 11.8696C37.7844 11.8696 39.1348 13.0556 39.1348 14.6023C39.1348 16.0949 37.841 17.3666 36.1836 17.3666ZM36.1836 12.767C35.1164 12.767 34.257 13.5968 34.257 14.6159C34.257 15.635 35.1164 16.4737 36.1836 16.4737C37.2603 16.4737 38.1101 15.6259 38.1101 14.6068C38.1054 13.5877 37.246 12.767 36.1836 12.767ZM39.9706 17.2358V10.2598H41V17.2358H39.9706ZM2.01523 16.2077C2.05774 16.3745 2.11439 16.5098 2.18052 16.6136C2.24658 16.7173 2.33161 16.8074 2.43077 16.8931C2.75658 17.1637 3.16742 17.3034 3.65381 17.3034C4.13542 17.3034 4.58877 17.1907 4.99955 16.9742V16.0363C4.57458 16.2753 4.16852 16.397 3.786 16.397C3.26658 16.397 2.99742 16.0949 2.99742 15.4951V12.9383H4.7209V12.032H3.00213V10.3545H1.9869V12.0275H1V12.9338H1.94439V15.2516C1.94439 15.7207 1.968 16.0408 2.01523 16.2077ZM8.22465 12.8888C8.54103 12.8888 8.89045 13.0556 9.26348 13.3893L9.82071 12.5054C9.36742 12.1087 8.81961 11.9283 8.49852 11.9283H8.42768C8.05935 11.9283 7.44548 11.9283 6.94497 12.7039L6.92606 12.7354L6.93077 12.032H5.86839V17.2088H6.93084V14.5032C6.93084 14.0703 7.05832 13.6915 7.31335 13.3713C7.56832 13.0511 7.87523 12.8888 8.22465 12.8888Z" fill="#231F20"/>
</svg>
