<svg width="147" height="80" viewBox="0 0 147 80" fill="none" xmlns="http://www.w3.org/2000/svg">
<g clip-path="url(#clip0_1797_96043)">
<path d="M51.0098 50.1584H35.9152C36.6077 52.8642 38.9058 54.9084 41.8965 54.9084C43.5806 54.9084 45.2333 54.217 46.3352 53.0297L49.9868 53.1047C48.3812 56.0207 45.312 57.8847 41.7548 57.8847C36.5606 57.8847 32.4838 53.5854 32.4838 48.7157C32.4838 43.6952 36.4976 39.5767 41.8335 39.5767C46.9963 39.5767 51.1202 43.6352 51.1202 48.5354C51.1043 49.0613 51.0729 49.6327 51.0098 50.1584ZM41.7862 42.5527C38.827 42.5527 36.0883 44.7775 35.8995 47.6484H47.6731C47.484 44.7923 44.761 42.5527 41.7862 42.5527ZM66.1361 57.4487V47.994C66.1361 45.0477 65.2075 42.5527 61.5873 42.5527C58.2348 42.5527 56.7866 45.033 56.7866 47.964V57.4489H53.3711V40.0424H56.5664V41.8914H56.6292C57.9514 40.2228 59.8559 39.5615 61.9651 39.5615C64.5621 39.5615 67.0019 40.5384 68.4184 42.673C69.2999 43.9956 69.5675 45.5889 69.5675 47.1372V57.4487H66.1361ZM87.7468 57.4487V54.9686H87.684C86.1729 56.9827 83.7647 57.8847 81.2305 57.8847C75.7688 57.8847 71.7548 53.9915 71.7548 48.8058C71.7548 43.5898 75.7055 39.5615 81.2305 39.5615C83.5288 39.5615 85.9681 40.4033 87.4165 42.1619H87.4793V34.1953H90.895V57.4487H87.7468ZM81.4195 42.5527C77.7993 42.5527 75.1707 45.3788 75.1707 48.7758C75.1707 52.0376 77.9094 54.9084 81.3879 54.9084C84.9451 54.9084 87.7311 52.1427 87.7311 48.7758C87.7468 45.2884 85.1498 42.5527 81.4195 42.5527ZM100.795 63.266H97.2539L99.9139 57.103L92.6421 40.0426H96.3253L101.693 53.5557L107.186 40.0426H110.869L100.795 63.266ZM120.612 57.8847C115.245 57.8847 110.775 53.766 110.775 48.6103C110.775 43.4847 115.355 39.5615 120.612 39.5615C125.948 39.5615 130.45 43.5149 130.45 48.6705C130.45 53.6458 126.137 57.8847 120.612 57.8847ZM120.612 42.5527C117.055 42.5527 114.19 45.3186 114.19 48.7157C114.19 52.1127 117.055 54.9084 120.612 54.9084C124.201 54.9084 127.034 52.0825 127.034 48.6855C127.018 45.2884 124.154 42.5527 120.612 42.5527ZM133.235 57.4487V34.1953H136.667V57.4487H133.235ZM6.71758 54.0216C6.8593 54.5778 7.04812 55.0288 7.26855 55.3746C7.48877 55.7203 7.77221 56.0207 8.10274 56.3064C9.18877 57.2084 10.5582 57.6742 12.1795 57.6742C13.7849 57.6742 15.2961 57.2983 16.6653 56.5769V53.4503C15.2488 54.2469 13.8952 54.6528 12.6202 54.6528C10.8888 54.6528 9.99156 53.6456 9.99156 51.6463V43.1238H15.7365V40.1026H10.0073V34.511H6.62317V40.0876H3.3335V43.1088H6.48145V50.8349C6.48145 52.3984 6.56016 53.4655 6.71758 54.0216ZM27.4156 42.9587C28.4703 42.9587 29.635 43.5149 30.8784 44.6271L32.7359 41.6809C31.2249 40.3583 29.3989 39.757 28.3286 39.757H28.0924C26.8647 39.757 24.8184 39.757 23.1501 42.3424L23.087 42.4475L23.1027 40.1028H19.5615V57.3587H23.103V48.3401C23.103 46.8971 23.5279 45.6345 24.378 44.5672C25.2279 43.4997 26.2509 42.9587 27.4156 42.9587Z" fill="#1E1E2A"/>
</g>
<defs>
<clipPath id="clip0_1797_96043">
<rect width="133.333" height="43.3333" fill="white" transform="translate(3.3335 20)"/>
</clipPath>
</defs>
</svg>
